<?xml version="1.0" standalone="no"?>
<!DOCTYPE svg PUBLIC "-//W3C//DTD SVG 20010904//EN"
 "http://www.w3.org/TR/2001/REC-SVG-20010904/DTD/svg10.dtd">
<svg version="1.0" xmlns="http://www.w3.org/2000/svg"
 width="960.000000pt" height="140.000000pt" viewBox="0 0 960.000000 140.000000"
 preserveAspectRatio="xMidYMid meet">

<g transform="translate(0.000000,140.000000) scale(0.100000,-0.100000)"
fill="#000000" stroke="none">
<path d="M3233 1259 c14 -8 22 -8 30 0 8 8 3 11 -18 11 -26 -1 -28 -2 -12 -11z"/>
<path d="M3290 1260 c0 -6 7 -10 15 -10 8 0 15 2 15 4 0 2 -7 6 -15 10 -8 3
-15 1 -15 -4z"/>
<path d="M6083 1261 c-45 -3 -88 -12 -95 -18 -6 -7 -35 -13 -62 -13 -58 0
-134 -26 -171 -58 -21 -18 -24 -26 -15 -42 6 -11 8 -25 5 -30 -7 -12 -72 -30
-108 -30 -34 0 -107 -22 -107 -32 0 -7 107 -14 153 -10 10 1 15 -3 12 -8 -20
-33 137 -33 211 0 54 23 113 20 155 -11 38 -27 36 -31 -6 -13 -31 12 -38 12
-70 -3 -32 -15 -50 -53 -25 -53 6 0 9 3 9 8 -3 19 2 32 12 32 8 0 8 -4 0 -14
-17 -20 -2 -27 61 -27 90 -1 159 -10 153 -20 -4 -5 -26 -7 -51 -4 -27 4 -44 2
-44 -5 0 -5 6 -10 14 -10 13 0 20 -78 17 -187 l-1 -23 20 20 c12 12 23 35 27
53 10 54 65 138 81 123 4 -4 9 -45 10 -90 3 -63 0 -91 -13 -116 -9 -17 -14
-35 -10 -38 9 -9 133 -8 142 1 3 4 -4 19 -18 33 -21 22 -25 38 -30 117 -3 51
-3 95 -1 100 6 13 56 -33 86 -81 31 -50 37 -108 14 -124 -8 -6 -2 -8 17 -6 24
2 30 8 29 26 0 12 3 22 8 22 4 0 8 9 8 20 0 12 11 43 25 70 30 59 32 90 8 90
-15 0 -15 -2 -4 -9 13 -8 12 -15 -4 -51 -19 -42 -47 -66 -65 -55 -15 9 -12 19
9 42 20 21 20 21 1 38 -11 10 -17 22 -14 26 3 5 -1 9 -9 9 -8 0 -20 7 -27 15
-11 13 -7 15 23 15 46 0 67 9 67 27 0 12 8 14 35 9 43 -8 45 -2 5 19 -19 10
-30 11 -30 5 0 -6 -5 -8 -10 -5 -18 11 16 34 46 30 16 -2 39 -4 52 -4 12 -1
30 -9 40 -19 27 -27 132 -54 181 -46 64 10 46 31 -41 49 -16 3 -28 9 -28 14 0
14 62 22 76 10 8 -6 25 -8 40 -5 22 6 24 9 12 23 -19 24 -111 81 -142 89 -16
4 -31 17 -37 31 -8 22 -14 25 -40 19 -18 -3 -45 0 -66 9 -45 19 -73 19 -101
-1 -17 -12 -26 -12 -39 -4 -17 11 -17 11 0 6 9 -3 17 -2 17 2 0 12 -151 53
-211 57 -30 2 -66 6 -80 8 -13 2 -61 1 -106 -2z m-58 -41 c8 -13 -5 -13 -25 0
-13 8 -13 10 2 10 9 0 20 -4 23 -10z m541 -42 c4 -7 3 -8 -4 -4 -7 4 -12 1
-12 -6 0 -9 -3 -9 -8 -2 -4 6 -14 14 -22 17 -9 3 -4 6 12 6 15 1 30 -4 34 -11z
m-224 -20 c-6 -6 -15 -8 -19 -4 -4 4 -1 11 7 16 19 12 27 3 12 -12z m288 -30
c0 -5 -9 -4 -20 2 -11 6 -20 15 -20 21 0 6 -6 7 -12 3 -9 -5 -9 -2 1 9 13 16
15 16 32 -4 11 -12 19 -26 19 -31z m58 17 c-3 -3 -9 2 -12 12 -6 14 -5 15 5 6
7 -7 10 -15 7 -18z m-448 5 c0 -5 -4 -10 -10 -10 -5 0 -10 5 -10 10 0 6 5 10
10 10 6 0 10 -4 10 -10z m215 0 c3 -5 -1 -10 -9 -10 -9 0 -16 5 -16 10 0 6 4
10 9 10 6 0 13 -4 16 -10z m205 0 c0 -5 -4 -10 -10 -10 -5 0 -10 5 -10 10 0 6
5 10 10 10 6 0 10 -4 10 -10z m-550 -31 c0 -5 -4 -9 -10 -9 -5 0 -10 7 -10 16
0 8 5 12 10 9 6 -3 10 -10 10 -16z m-50 -9 c0 -5 -4 -10 -10 -10 -5 0 -10 5
-10 10 0 6 5 10 10 10 6 0 10 -4 10 -10z m104 1 c3 -5 -1 -12 -10 -15 -22 -9
-24 -8 -24 9 0 16 25 21 34 6z m151 -1 c3 -5 1 -10 -4 -10 -6 0 -11 5 -11 10
0 6 2 10 4 10 3 0 8 -4 11 -10z m-327 -22 c-3 -7 -10 -13 -15 -13 -6 0 -15 -3
-19 -7 -12 -13 -34 -9 -34 6 0 14 18 23 53 25 11 1 17 -4 15 -11z m74 -16 c-2
-10 2 -10 18 -2 30 16 41 4 28 -31 -6 -16 -13 -28 -17 -26 -3 1 -28 13 -55 26
-47 22 -49 24 -30 38 22 16 60 13 56 -5z m293 -11 c3 -5 1 -12 -5 -16 -5 -3
-10 1 -10 9 0 18 6 21 15 7z m-575 -17 c0 2 17 0 37 -5 24 -5 40 -4 44 2 3 6
19 9 35 7 l29 -4 -35 -15 c-20 -9 -65 -16 -105 -17 -62 -1 -68 1 -51 13 10 8
15 19 11 25 -6 9 -2 9 14 1 11 -7 21 -10 21 -7z m1000 7 c0 -11 -48 -24 -60
-16 -21 13 -8 25 25 25 19 0 35 -4 35 -9z m-620 -8 c-1 -21 -29 -88 -39 -91
-8 -3 -8 4 -1 23 5 14 10 37 10 51 0 15 6 24 15 24 8 0 15 -3 15 -7z m120 -8
c0 -19 -43 -20 -59 -2 -9 11 -4 14 24 15 25 1 35 -3 35 -13z m455 -45 c3 -5
-1 -10 -9 -10 -8 0 -18 5 -21 10 -3 6 1 10 9 10 8 0 18 -4 21 -10z m-695 -30
c0 -5 -2 -10 -4 -10 -3 0 -8 5 -11 10 -3 6 -1 10 4 10 6 0 11 -4 11 -10z"/>
<path d="M3078 1253 c7 -3 16 -2 19 1 4 3 -2 6 -13 5 -11 0 -14 -3 -6 -6z"/>
<path d="M4590 1249 c-125 -14 -126 -14 -101 -47 16 -22 18 -22 54 -7 71 30
171 13 241 -40 l33 -25 16 22 c8 13 18 20 23 16 4 -5 -1 -17 -10 -27 -17 -18
-17 -21 -1 -45 22 -34 28 -33 51 9 10 19 25 35 32 35 10 0 12 7 8 23 -3 12 -6
33 -6 47 l-1 25 -24 -27 c-22 -26 -54 -40 -40 -18 11 17 -66 45 -180 64 -11 2
-54 0 -95 -5z"/>
<path d="M3130 1226 c0 -9 5 -16 10 -16 6 0 10 4 10 9 0 6 -4 13 -10 16 -5 3
-10 -1 -10 -9z"/>
<path d="M3235 1169 c-7 -32 15 -69 42 -69 7 0 16 -7 19 -15 6 -14 8 -13 19 2
10 14 7 24 -22 65 -19 26 -39 48 -43 48 -5 0 -11 -14 -15 -31z"/>
<path d="M2898 1153 c-78 -83 -132 -194 -127 -261 1 -15 -2 -35 -6 -45 -11
-27 12 -135 45 -203 39 -79 128 -165 217 -207 63 -30 75 -32 173 -32 103 0
108 1 185 39 94 47 180 127 187 176 3 17 1 33 -4 36 -4 3 -8 -2 -8 -11 0 -16
-22 -45 -34 -45 -14 0 -4 28 17 48 26 25 43 28 49 10 2 -6 12 8 22 33 30 73
35 245 6 199 -5 -8 -7 -23 -4 -33 5 -16 3 -17 -14 -8 -29 16 -35 14 -29 -9 8
-31 -9 -23 -22 10 -6 17 -17 45 -23 63 -7 17 -19 39 -26 48 -13 15 -17 15 -43
2 -24 -12 -33 -12 -44 -3 -18 15 -19 3 -4 -37 l10 -28 -31 30 c-17 17 -41 51
-52 77 -21 49 -49 68 -73 48 -10 -8 -19 -8 -34 0 -16 8 -26 7 -46 -6 -15 -10
-25 -12 -25 -5 0 6 5 11 10 11 6 0 10 4 10 10 0 5 -7 7 -15 4 -17 -7 -20 7 -4
23 8 8 8 13 0 17 -7 5 -4 14 8 27 21 22 17 59 -5 59 -17 0 -18 -22 -3 -37 8
-8 7 -13 -1 -18 -6 -4 -17 -2 -23 4 -6 6 -19 11 -29 11 -14 0 -17 -5 -12 -24
5 -22 3 -24 -18 -22 -41 4 -69 25 -66 49 2 13 -2 21 -9 20 -7 -2 -13 2 -13 7
0 6 -3 10 -7 10 -12 0 -89 -73 -96 -90 -4 -11 -6 -11 -6 -1 -1 7 13 31 30 52
39 49 33 50 -13 2z m232 -33 c0 -5 -2 -10 -4 -10 -3 0 -8 5 -11 10 -3 6 -1 10
4 10 6 0 11 -4 11 -10z m-122 -53 c-10 -15 -12 -33 -7 -57 4 -20 4 -36 -2 -38
-5 -2 -7 -7 -4 -12 3 -4 -4 -19 -15 -31 l-20 -24 1 88 c1 80 3 87 21 87 13 0
18 5 15 14 -8 20 5 29 16 11 5 -10 4 -24 -5 -38z m-63 -49 c-3 -39 -8 -75 -12
-81 -3 -5 -6 -26 -7 -46 -1 -20 -9 -47 -18 -60 l-17 -24 -13 47 c-10 39 -14
44 -24 31 -9 -13 -12 -9 -18 24 -8 50 13 109 44 124 14 7 27 21 29 32 4 22 21
36 33 29 4 -3 5 -37 3 -76z m195 -3 c-7 -8 -16 -15 -21 -15 -5 0 -6 7 -3 15 4
8 13 15 21 15 13 0 13 -3 3 -15z m-113 -17 c-3 -8 -6 -5 -6 6 -1 11 2 17 5 13
3 -3 4 -12 1 -19z m153 -42 c-12 -12 -15 -8 -25 24 -8 25 -8 25 14 6 14 -13
18 -23 11 -30z m40 -16 c0 -5 -4 -10 -10 -10 -5 0 -10 5 -10 10 0 6 5 10 10
10 6 0 10 -4 10 -10z m-145 -47 c42 -44 55 -74 18 -41 -15 13 -20 14 -30 3
-10 -11 -10 -15 0 -18 7 -3 1 -4 -13 -4 -32 2 -49 18 -57 58 -4 23 -3 31 7 27
7 -2 14 -17 16 -32 2 -16 7 -33 11 -37 15 -15 13 33 -3 62 -22 43 0 35 51 -18z
m455 -49 c0 -19 -16 -18 -24 2 -11 27 -7 37 9 24 8 -7 15 -19 15 -26z m-590
-24 c0 -5 -4 -10 -10 -10 -5 0 -10 5 -10 10 0 6 5 10 10 10 6 0 10 -4 10 -10z
m146 -6 c-4 -9 -1 -23 5 -30 9 -11 9 -14 0 -14 -6 0 -14 7 -17 15 -7 16 1 45
12 45 3 0 3 -7 0 -16z m99 -34 c18 0 28 -32 13 -42 -22 -13 -30 -9 -23 13 6
17 4 20 -12 15 -21 -6 -46 11 -56 38 -7 17 -5 17 28 -3 20 -12 42 -21 50 -21z
m416 -56 c-9 -17 -10 -17 -11 -1 0 9 -5 17 -10 17 -11 0 -50 58 -50 75 0 5 19
-9 41 -31 35 -35 40 -45 30 -60z m-621 81 c0 -4 -7 -19 -15 -35 -9 -17 -12
-30 -7 -30 4 0 17 -7 28 -15 18 -14 18 -14 -6 -15 -37 0 -51 28 -34 68 11 27
34 45 34 27z m70 -55 c0 -5 10 -8 23 -6 13 2 27 -4 35 -16 7 -10 17 -16 22
-13 12 7 21 -10 15 -27 -3 -8 -20 -14 -39 -15 -29 -1 -36 4 -55 37 -24 42 -25
50 -11 50 6 0 10 -4 10 -10z m-150 -67 c0 -3 -7 0 -15 7 -8 7 -15 22 -15 34 0
18 2 17 15 -8 8 -15 15 -31 15 -33z m354 49 c2 -4 1 -14 -3 -20 -10 -17 -41
-4 -34 14 6 15 29 19 37 6z m31 -32 c-3 -5 2 -10 12 -11 12 -1 10 -3 -7 -8
-14 -4 -27 -6 -29 -5 -7 6 9 34 19 34 6 0 8 -4 5 -10z m96 -41 c16 -11 33 -18
38 -14 15 8 25 -15 12 -28 -8 -8 -11 -8 -11 1 0 7 -6 12 -12 11 -7 -1 -29 -1
-49 0 -32 1 -36 4 -36 26 0 31 19 32 58 4z m-353 -29 c-2 -6 -8 -6 -18 0 -13
9 -13 11 0 20 15 10 25 0 18 -20z m69 3 c-4 -3 -2 -12 4 -20 9 -10 8 -13 -3
-13 -8 0 -17 3 -21 6 -8 9 3 34 16 34 6 0 7 -3 4 -7z m-90 -25 c13 -12 23 -28
23 -36 0 -8 6 -12 14 -9 10 4 13 1 10 -7 -9 -22 -44 -7 -44 19 0 14 -7 25 -20
28 -11 3 -20 10 -20 16 0 17 11 13 37 -11z m357 -14 c6 -15 -31 -36 -46 -27
-4 2 -5 -3 -2 -11 3 -8 15 -16 27 -19 20 -3 19 -4 -8 -17 -16 -8 -36 -20 -43
-27 -15 -15 -62 -18 -62 -4 0 11 25 21 51 21 22 0 24 11 7 28 -9 9 -7 16 7 32
14 15 15 20 4 20 -10 1 -9 4 4 14 21 16 53 10 61 -10z m-186 -1 c-10 -2 -18
-9 -18 -15 0 -6 -3 -9 -6 -5 -10 10 6 27 24 26 15 -1 15 -2 0 -6z m332 -15 c0
-19 -2 -20 -10 -8 -13 19 -13 30 0 30 6 0 10 -10 10 -22z m-315 -38 c3 -5 -1
-10 -9 -10 -8 0 -18 5 -21 10 -3 6 1 10 9 10 8 0 18 -4 21 -10z m-204 -57 c13
-15 12 -15 -11 -3 -34 17 -36 20 -18 20 9 0 22 -7 29 -17z m199 7 c0 -5 -2
-10 -4 -10 -3 0 -8 5 -11 10 -3 6 -1 10 4 10 6 0 11 -4 11 -10z m230 -11 c0
-5 -7 -9 -15 -9 -9 0 -12 6 -9 15 6 15 24 11 24 -6z m-200 -9 c0 -5 -2 -10 -4
-10 -3 0 -8 5 -11 10 -3 6 -1 10 4 10 6 0 11 -4 11 -10z m140 -20 c0 -5 -5
-10 -11 -10 -5 0 -7 5 -4 10 3 6 8 10 11 10 2 0 4 -4 4 -10z m-67 -27 c-7 -2
-21 -2 -30 0 -10 3 -4 5 12 5 17 0 24 -2 18 -5z"/>
<path d="M2893 985 c-3 -9 -3 -18 -1 -21 3 -3 8 4 11 16 6 23 -1 27 -10 5z"/>
<path d="M4389 1183 c-1 -5 -2 -17 -3 -27 -1 -12 -13 -23 -35 -31 -41 -13 -91
-70 -91 -102 0 -13 -4 -23 -9 -23 -15 0 -35 -92 -35 -165 -1 -70 2 -78 53
-170 l23 -40 -26 28 c-30 32 -31 31 -12 -14 30 -71 97 -138 182 -182 87 -45
283 -44 369 2 46 25 105 71 105 84 0 5 -3 7 -7 4 -3 -4 -12 -2 -19 4 -9 7 -23
5 -51 -9 -49 -24 -145 -46 -172 -39 -15 4 -28 -3 -45 -24 -27 -32 -36 -36 -36
-15 0 7 9 16 20 19 29 8 24 23 -12 38 -33 14 -108 75 -108 89 0 7 144 23 200
23 14 0 44 -8 68 -17 24 -9 68 -17 98 -19 56 -2 62 -5 42 -25 -7 -7 -10 -12
-7 -13 2 0 14 -2 26 -5 23 -4 63 36 63 62 0 16 1 16 -100 14 -42 -1 -89 4
-105 10 l-29 11 51 29 c76 44 108 90 108 158 0 47 -4 57 -28 78 -34 29 -86 32
-118 5 -24 -19 -24 -19 -51 6 -53 50 -138 24 -153 -48 -10 -43 20 -121 65
-172 l40 -45 -53 -6 c-28 -3 -76 -7 -104 -8 -29 0 -53 -3 -53 -6 0 -8 52 -76
68 -89 8 -6 12 -17 10 -23 -2 -7 -22 14 -44 46 -53 77 -60 89 -46 80 15 -9 15
-5 2 29 -7 18 -15 25 -25 21 -17 -6 -21 9 -5 19 6 3 10 13 10 20 0 11 -6 12
-26 5 -39 -15 -42 -11 -10 14 20 17 26 28 20 37 -5 8 -10 26 -11 42 -1 15 -3
33 -4 40 0 6 4 37 10 67 6 30 9 69 6 85 -3 22 -3 25 3 11 8 -18 10 -17 19 10
11 31 -3 134 -19 134 -4 0 -9 -3 -9 -7z m-39 -97 c0 -2 -7 -7 -16 -10 -8 -3
-12 -2 -9 4 6 10 25 14 25 6z m-14 -51 c-20 -15 -24 -45 -13 -87 4 -16 3 -28
-2 -28 -25 0 -28 105 -3 119 26 15 40 12 18 -4z m-59 -105 c12 -22 17 -40 11
-40 -5 0 -6 -10 -3 -22 7 -23 7 -23 -11 1 -9 13 -17 35 -18 50 -1 14 -5 32 -9
39 -5 6 -5 12 0 12 4 0 18 -18 30 -40z m90 -22 c-3 -8 -6 -5 -6 6 -1 11 2 17
5 13 3 -3 4 -12 1 -19z m310 -10 c11 -13 26 -33 32 -45 16 -31 25 -29 42 9 8
20 25 37 41 42 65 23 95 -80 42 -144 -26 -30 -110 -80 -137 -80 -20 0 -84 71
-102 112 -20 48 -19 87 2 110 22 24 55 23 80 -4z m-307 -105 c0 -7 -7 -10 -15
-7 -8 4 -15 14 -15 23 0 9 -7 25 -15 35 -8 11 -15 24 -15 30 0 14 59 -67 60
-81z m-70 6 c0 -11 4 -19 8 -19 11 0 35 -51 28 -58 -11 -10 -33 19 -45 58 -6
22 -16 40 -22 40 -6 0 -7 5 -4 10 10 16 35 -8 35 -31z m54 -120 c-3 -5 -1 -9
3 -9 5 0 14 -13 20 -30 15 -41 1 -38 -16 3 -8 17 -18 40 -23 51 -7 16 -6 17 7
6 8 -7 12 -16 9 -21z m-51 -71 c34 -36 67 -81 67 -91 0 -13 -34 22 -68 71 -23
31 -22 44 1 20z m131 -67 c-5 -6 -44 39 -44 51 0 5 11 -4 24 -19 13 -15 22
-30 20 -32z m134 -67 c-4 -3 -12 5 -18 18 -12 22 -12 22 6 6 10 -10 15 -20 12
-24z m114 8 c-6 -5 -19 -17 -28 -28 -8 -10 -12 -12 -8 -4 12 26 26 40 38 40 7
0 7 -3 -2 -8z m-172 -27 c0 -8 -2 -15 -4 -15 -2 0 -6 7 -10 15 -3 8 -1 15 4
15 6 0 10 -7 10 -15z"/>
<path d="M3346 1152 c-3 -3 1 -14 11 -24 9 -10 13 -18 9 -18 -4 0 1 -13 11
-30 9 -16 23 -30 30 -30 7 0 13 -7 13 -15 0 -9 12 -18 30 -22 17 -3 33 -10 36
-14 3 -5 12 -9 20 -9 21 0 17 31 -6 37 -11 3 -27 23 -37 44 -9 21 -20 39 -24
39 -3 0 -19 10 -35 22 -29 23 -49 30 -58 20z"/>
<path d="M4345 1150 c-3 -5 -1 -10 4 -10 6 0 11 5 11 10 0 6 -2 10 -4 10 -3 0
-8 -4 -11 -10z"/>
<path d="M3430 1140 c0 -5 5 -10 10 -10 6 0 10 5 10 10 0 6 -4 10 -10 10 -5 0
-10 -4 -10 -10z"/>
<path d="M3540 1102 c6 -13 14 -21 18 -18 3 4 -2 14 -12 24 -18 16 -18 16 -6
-6z"/>
<path d="M4896 1081 c-14 -26 -13 -32 4 -67 11 -21 20 -30 20 -21 0 10 7 29
16 43 14 20 15 30 6 49 -15 33 -28 31 -46 -4z"/>
<path d="M4936 984 c-8 -22 1 -31 16 -16 9 9 9 15 1 23 -7 7 -12 5 -17 -7z"/>
<path d="M3670 909 c0 -4 7 -9 15 -13 8 -3 15 -12 15 -20 0 -9 6 -13 13 -11 6
3 23 -11 36 -30 27 -41 36 -43 44 -14 10 37 -36 86 -83 91 -22 2 -40 1 -40 -3z"/>
<path d="M3860 909 c0 -4 7 -9 15 -13 11 -4 15 -22 15 -76 0 -40 -4 -70 -10
-70 -5 0 -10 3 -10 8 -1 9 -60 75 -64 70 -2 -1 -6 -13 -10 -24 -5 -16 5 -35
39 -78 25 -31 50 -56 54 -56 5 0 11 50 13 112 2 76 7 113 16 116 24 8 11 17
-23 17 -19 0 -35 -3 -35 -6z"/>
<path d="M3970 908 c0 -5 5 -8 10 -8 6 0 10 -27 10 -60 0 -61 5 -69 30 -47 8
6 5 0 -8 -14 -13 -14 -22 -39 -22 -57 0 -19 -7 -35 -17 -41 -13 -8 10 -10 85
-11 102 0 103 0 113 26 13 35 6 41 -20 15 -26 -26 -69 -37 -90 -24 -10 6 -17
27 -19 57 -3 44 -2 46 23 46 14 0 28 -7 31 -15 11 -26 21 -16 20 19 -2 34 -16
65 -16 34 0 -16 -20 -28 -46 -28 -10 0 -14 14 -14 50 0 43 3 50 20 50 11 0 20
4 20 8 0 5 -25 8 -55 8 -30 -1 -55 -4 -55 -8z"/>
<path d="M4122 911 c-23 -6 -23 -6 7 -29 28 -20 31 -21 31 -5 0 29 -13 40 -38
34z"/>
<path d="M4930 911 c0 -6 7 -11 16 -11 14 0 16 -14 13 -112 l-4 -113 30 -3
c28 -2 29 -2 11 12 -21 17 -28 79 -17 155 l6 44 14 -26 c8 -15 21 -27 30 -27
14 -1 14 -2 0 -10 -15 -9 -14 -16 10 -75 14 -35 28 -65 31 -65 9 1 63 130 57
137 -4 3 -12 -8 -18 -25 -11 -31 -29 -44 -29 -21 0 6 -7 8 -16 5 -13 -5 -14
-4 -5 7 15 19 -12 73 -39 80 -21 5 -28 37 -8 37 6 0 8 3 5 7 -12 12 -87 15
-87 4z"/>
<path d="M5163 910 c-10 -10 -33 -73 -28 -78 2 -3 9 7 15 22 12 34 26 27 24
-11 -1 -15 -3 -56 -3 -90 -1 -49 -4 -63 -16 -63 -8 0 -15 -4 -15 -10 0 -5 23
-10 50 -10 44 0 67 12 41 22 -15 5 -17 201 -3 206 7 2 12 7 12 11 0 8 -68 9
-77 1z"/>
<path d="M5260 908 c0 -5 5 -8 11 -8 12 0 8 -185 -5 -212 -7 -15 -3 -18 28
-18 20 0 36 5 36 10 0 6 -7 10 -15 10 -12 0 -15 17 -14 98 0 53 3 93 5 87 3
-5 21 -50 42 -99 20 -48 41 -88 47 -88 5 0 26 41 46 92 20 50 40 90 44 88 8
-3 7 -167 -1 -180 -3 -5 -10 -6 -15 -3 -5 4 -9 2 -9 -4 0 -6 24 -10 55 -10 30
1 55 5 55 10 0 5 -7 9 -16 9 -14 0 -15 15 -12 114 l3 115 -28 -1 c-34 -1 -39
-7 -72 -90 -15 -38 -31 -68 -35 -68 -4 0 -13 13 -18 30 -6 16 -21 52 -34 79
-22 48 -24 50 -60 48 -21 -1 -38 -5 -38 -9z"/>
<path d="M5570 908 c0 -3 5 -8 10 -10 7 -2 11 -38 12 -86 0 -56 5 -85 14 -90
7 -4 12 -11 12 -17 -1 -19 47 -36 87 -31 61 7 75 32 75 132 0 45 5 86 10 89
21 13 9 25 -25 25 -36 0 -47 -13 -20 -24 22 -8 21 -153 -1 -184 -17 -25 -51
-29 -79 -8 -26 19 -36 182 -11 192 30 11 16 19 -34 19 -27 0 -50 -3 -50 -7z"/>
<path d="M5820 914 c0 -3 7 -13 16 -21 13 -13 15 -34 12 -106 -2 -61 -7 -92
-15 -95 -27 -8 -11 -22 27 -22 22 0 40 5 40 10 0 6 -6 10 -14 10 -10 0 -15 22
-20 81 -4 44 -4 84 -1 87 4 4 15 -4 24 -18 44 -66 149 -183 152 -168 0 2 3 53
6 113 3 61 9 112 14 113 22 9 6 22 -26 22 -38 0 -43 -7 -19 -24 11 -9 14 -27
12 -80 l-3 -68 -68 86 c-62 78 -72 86 -103 86 -19 0 -34 -3 -34 -6z"/>
<path d="M6570 900 c0 -5 7 -7 15 -4 8 4 15 8 15 10 0 2 -7 4 -15 4 -8 0 -15
-4 -15 -10z"/>
<path d="M3700 836 c0 -9 5 -16 10 -16 6 0 10 4 10 9 0 6 -4 13 -10 16 -5 3
-10 -1 -10 -9z"/>
<path d="M3701 756 c-1 -43 -6 -62 -18 -73 -17 -12 -16 -13 7 -11 22 3 25 8
26 47 1 24 -2 55 -6 70 -6 20 -8 12 -9 -33z"/>
<path d="M6155 690 c-18 -19 -17 -20 13 -20 35 0 39 5 18 25 -12 12 -16 11
-31 -5z"/>
<path d="M4925 680 c-3 -5 -1 -10 4 -10 6 0 11 5 11 10 0 6 -2 10 -4 10 -3 0
-8 -4 -11 -10z"/>
<path d="M6505 680 c3 -5 8 -10 11 -10 2 0 4 5 4 10 0 6 -5 10 -11 10 -5 0 -7
-4 -4 -10z"/>
<path d="M3206 258 c-3 -13 -6 -33 -6 -44 0 -17 -7 -23 -36 -26 l-35 -4 3 40
c2 31 -1 41 -13 44 -13 2 -18 -7 -23 -45 -7 -63 -7 -63 0 -101 9 -44 34 -42
34 3 0 33 2 35 35 35 30 0 35 -3 35 -24 0 -24 22 -51 33 -40 3 3 3 21 0 40 -4
24 -2 34 8 34 10 0 10 3 1 12 -15 15 -16 50 -1 65 6 6 8 16 5 22 -12 19 -33
12 -40 -11z"/>
<path d="M3356 262 c-18 -20 -63 -118 -68 -147 -4 -27 28 -32 35 -5 4 15 13
20 41 20 25 0 36 -4 36 -15 0 -23 27 -18 33 7 3 12 2 29 -4 39 -5 10 -9 27 -9
38 0 27 -20 69 -35 75 -7 2 -20 -3 -29 -12z m36 -77 c3 -27 0 -30 -29 -33 -18
-2 -33 -1 -33 3 0 3 9 24 21 47 23 45 34 40 41 -17z"/>
<path d="M3488 273 c-2 -5 -3 -46 -3 -93 0 -75 2 -85 19 -88 16 -3 18 0 12 21
-6 24 -4 25 28 20 46 -7 76 22 76 75 0 57 -53 95 -87 61 -8 -8 -13 -8 -17 0
-8 13 -23 14 -28 4z m102 -68 c0 -38 -21 -59 -49 -50 -25 8 -33 29 -21 59 21
56 70 50 70 -9z"/>
<path d="M3668 273 c-2 -5 -3 -46 -3 -93 0 -75 2 -85 19 -88 16 -3 18 0 12 22
-6 24 -4 25 24 20 49 -10 80 17 80 70 0 29 -6 48 -18 59 -21 19 -53 22 -69 6
-8 -8 -13 -8 -17 0 -8 13 -23 15 -28 4z m103 -42 c5 -69 -28 -102 -66 -65 -19
19 -12 51 16 76 23 19 48 14 50 -11z"/>
<path d="M3845 268 c-7 -18 11 -67 33 -91 13 -15 14 -23 4 -49 -12 -32 -8 -53
9 -42 9 5 89 165 89 178 0 3 -6 6 -13 6 -7 0 -24 -18 -36 -40 -18 -32 -26 -39
-36 -30 -8 6 -15 25 -17 42 -3 33 -24 49 -33 26z"/>
<path d="M4192 239 c-1 -22 -10 -59 -21 -82 l-18 -42 -12 30 c-7 17 -15 51
-18 78 -5 38 -9 47 -25 47 -12 0 -18 -5 -15 -13 2 -7 10 -39 17 -72 15 -76 26
-95 50 -95 27 0 60 68 67 136 5 43 3 54 -9 54 -10 0 -15 -12 -16 -41z"/>
<path d="M4655 273 c-16 -3 -35 -9 -41 -14 -14 -12 -17 -109 -4 -144 10 -27
12 -28 67 -21 31 4 59 9 62 12 13 12 -25 21 -55 12 -40 -10 -54 -5 -54 22 0
15 9 21 40 26 47 8 44 24 -5 24 -31 0 -33 2 -26 28 6 23 13 27 50 30 27 2 41
7 38 15 -4 13 -27 17 -72 10z"/>
<path d="M4891 262 c-6 -11 -11 -46 -11 -77 0 -31 -4 -54 -9 -51 -4 3 -17 35
-27 71 -16 55 -22 65 -39 63 -18 -3 -20 -11 -20 -88 0 -68 3 -85 15 -85 11 0
14 12 12 50 l-2 50 20 -43 c38 -83 72 -66 81 41 6 76 -2 103 -20 69z"/>
<path d="M5322 268 c-7 -7 -12 -41 -12 -77 0 -77 -12 -73 -39 15 -15 46 -24
60 -40 62 -21 3 -22 1 -19 -82 2 -51 7 -85 13 -84 6 2 11 14 11 28 3 64 4 64
27 20 15 -31 28 -45 42 -45 18 0 21 9 26 72 4 39 10 76 13 81 9 16 -9 23 -22
10z"/>
<path d="M5430 271 l-35 -6 -3 -76 c-3 -94 5 -104 78 -94 56 8 71 28 20 27 -3
0 -20 -3 -37 -7 -30 -6 -33 -5 -33 19 0 21 6 26 35 32 19 3 35 10 35 15 0 5
-16 9 -35 9 -31 0 -35 3 -35 25 0 25 10 31 70 37 14 2 24 8 23 13 -3 12 -36
15 -83 6z"/>
<path d="M5650 260 c-34 -34 -26 -66 25 -102 25 -18 45 -35 45 -40 0 -11 -38
-10 -61 2 -27 15 -47 1 -24 -17 25 -18 99 -17 115 2 15 18 4 35 -45 65 -40 25
-51 49 -31 68 22 22 46 7 46 -29 0 -38 24 -35 28 4 4 30 -28 67 -58 67 -11 0
-29 -9 -40 -20z"/>
<path d="M5864 271 c-2 -2 -4 -44 -4 -93 l0 -89 47 3 c41 3 50 7 70 37 29 43
31 103 3 131 -15 15 -31 20 -66 18 -25 -2 -47 -5 -50 -7z m96 -26 c18 -21 6
-93 -18 -118 -33 -32 -52 -16 -52 44 0 73 38 113 70 74z"/>
<path d="M6096 262 c-18 -20 -63 -118 -68 -147 -4 -27 28 -32 35 -5 4 15 13
20 41 20 25 0 36 -4 36 -15 0 -22 27 -18 33 4 4 17 -11 91 -28 133 -10 25 -31
29 -49 10z m36 -77 c3 -27 0 -30 -29 -33 -18 -2 -33 -1 -33 3 0 3 9 24 21 47
23 45 34 40 41 -17z"/>
<path d="M6214 266 c-3 -8 7 -38 22 -66 23 -43 26 -54 15 -76 -11 -25 -8 -44
8 -44 6 0 91 171 91 184 0 3 -6 6 -13 6 -7 0 -24 -18 -36 -41 -26 -45 -39 -42
-50 12 -7 36 -28 50 -37 25z"/>
<path d="M6416 272 c-2 -4 -6 -34 -7 -66 -5 -73 15 -89 24 -19 3 26 8 55 12
64 6 16 -20 35 -29 21z"/>
<path d="M4308 248 c-16 -25 -58 -132 -58 -148 0 -6 7 -10 15 -10 8 0 15 6 15
14 0 27 74 37 84 11 3 -8 12 -15 20 -15 15 0 30 41 17 50 -4 3 -11 23 -15 45
-10 54 -23 75 -45 75 -10 0 -25 -10 -33 -22z m46 -39 c11 -54 8 -59 -29 -59
l-35 0 22 45 c12 25 25 45 29 45 3 0 9 -14 13 -31z"/>
<path d="M4452 200 c-3 -89 7 -110 56 -110 44 0 76 15 52 24 -8 3 -28 5 -45 3
l-30 -2 3 78 c3 69 1 77 -15 77 -15 0 -18 -10 -21 -70z"/>
<path d="M4962 264 c-18 -8 -4 -24 21 -24 21 0 22 -5 22 -72 0 -57 3 -73 15
-76 12 -2 14 7 12 43 -2 25 -1 61 2 81 6 28 11 34 29 32 12 -2 24 2 27 7 5 11
-105 18 -128 9z"/>
<path d="M5137 263 c-11 -10 -8 -132 3 -154 19 -35 25 -20 27 71 1 66 -2 90
-11 90 -7 0 -16 -3 -19 -7z"/>
<path d="M5564 244 c5 -18 3 -30 -6 -35 -10 -7 -9 -9 3 -9 39 0 52 61 15 68
-16 3 -18 0 -12 -24z"/>
<path d="M6393 108 c2 -7 12 -13 22 -13 10 0 20 6 23 13 2 7 -6 12 -23 12 -17
0 -25 -5 -22 -12z"/>
</g>
</svg>
