<?xml version="1.0" standalone="no"?>
<!DOCTYPE svg PUBLIC "-//W3C//DTD SVG 20010904//EN"
 "http://www.w3.org/TR/2001/REC-SVG-20010904/DTD/svg10.dtd">
<svg version="1.0" xmlns="http://www.w3.org/2000/svg"
 width="897.000000pt" height="520.000000pt" viewBox="0 0 897.000000 520.000000"
 preserveAspectRatio="xMidYMid meet">

<g transform="translate(0.000000,520.000000) scale(0.100000,-0.100000)"
fill="#000000" stroke="none">
<path d="M3540 5131 c-22 -8 -22 -9 -5 -11 55 -7 153 -4 145 4 -13 13 -109 17
-140 7z"/>
<path d="M3731 5119 c-32 -10 -33 -11 -14 -24 25 -18 118 -32 109 -16 -14 22
25 23 74 2 59 -25 58 -25 62 -3 3 14 -8 19 -57 30 -93 19 -137 22 -174 11z"/>
<path d="M3327 5095 c-61 -17 -66 -22 -32 -31 28 -7 95 20 95 38 0 10 -3 10
-63 -7z"/>
<path d="M3470 5020 c0 -5 -7 -10 -15 -10 -8 0 -15 -7 -15 -15 0 -8 5 -15 11
-15 6 0 8 -7 5 -16 -5 -14 -4 -15 9 -4 9 7 15 20 13 29 -1 9 1 22 5 29 5 7 4
12 -2 12 -6 0 -11 -4 -11 -10z"/>
<path d="M3970 4940 c6 -11 14 -20 18 -20 4 0 8 9 8 20 0 13 -7 20 -18 20 -16
0 -17 -3 -8 -20z"/>
<path d="M4030 4940 c0 -14 15 -19 29 -11 9 6 7 10 -8 14 -12 3 -21 1 -21 -3z"/>
<path d="M2944 4912 c-64 -42 -180 -150 -226 -210 -23 -31 -70 -112 -104 -181
-35 -69 -63 -123 -64 -120 0 12 34 105 44 118 8 11 8 13 -2 7 -60 -36 -202
-496 -152 -496 6 0 10 -8 10 -17 0 -10 7 -31 15 -47 8 -15 15 -42 14 -60 l-1
-31 -19 43 c-11 23 -24 42 -29 42 -13 0 -13 -140 1 -236 40 -286 183 -551 403
-746 179 -158 353 -247 578 -294 127 -26 385 -24 503 4 141 33 317 103 370
147 20 16 19 16 -5 9 -14 -3 -43 -17 -66 -30 -22 -13 -45 -24 -49 -24 -10 0
51 47 69 53 6 2 8 8 4 12 -4 4 -14 3 -21 -4 -9 -7 -23 -8 -37 -3 l-22 8 26 31
c17 20 24 37 19 49 -5 14 -3 16 13 9 10 -5 29 -9 42 -9 14 -1 20 -6 17 -14 -2
-7 2 -15 11 -19 13 -5 13 -8 -3 -25 -16 -18 -16 -19 3 -12 10 4 26 13 35 21 9
8 20 13 25 11 5 -2 34 11 64 28 99 56 290 279 290 338 0 31 -15 35 -23 6 -3
-11 -10 -20 -16 -20 -6 0 -11 9 -11 20 0 11 5 20 10 20 6 0 10 5 10 12 0 9 -3
9 -12 0 -7 -7 -20 -12 -30 -12 -10 0 -18 -5 -18 -11 0 -15 -39 -69 -50 -69
-14 0 -22 40 -11 54 6 7 8 16 4 19 -3 4 2 16 12 27 10 11 15 20 12 20 -3 0 10
16 29 36 19 20 34 43 34 50 0 8 9 14 20 14 13 0 18 -5 14 -15 -10 -25 13 -17
34 12 27 38 41 21 18 -22 -18 -33 -46 -54 -46 -34 0 6 -5 7 -11 3 -6 -3 -16 0
-21 7 -7 10 -8 9 -3 -6 4 -11 10 -28 12 -37 8 -27 18 -22 57 24 35 43 57 48
36 8 -10 -18 -9 -21 2 -18 65 21 183 558 123 558 -8 0 -15 6 -16 13 -1 6 -4 1
-8 -13 -5 -18 -14 -24 -29 -23 -23 3 -31 -20 -12 -32 6 -4 8 -11 4 -16 -3 -5
0 -17 7 -25 6 -8 9 -17 6 -20 -8 -8 -67 34 -67 48 0 15 -53 87 -69 93 -12 5
-12 2 1 -12 15 -17 58 -97 58 -107 0 -3 -12 6 -27 20 -15 14 -29 21 -31 15 -2
-6 -9 -11 -15 -11 -14 0 -56 111 -59 158 -1 18 -8 38 -15 44 -7 6 -13 21 -13
34 0 14 -5 23 -12 22 -8 -2 -14 9 -16 27 -1 17 -7 39 -11 50 -5 11 -12 28 -15
39 -5 15 -9 16 -21 6 -9 -7 -17 -11 -18 -9 -1 2 -11 22 -22 43 -11 22 -26 41
-34 44 -10 3 -11 0 -2 -17 10 -17 9 -21 -5 -21 -11 0 -14 -5 -10 -16 5 -14 4
-15 -9 -4 -12 10 -18 10 -31 -1 -14 -11 -18 -11 -29 4 -7 9 -17 17 -24 17 -23
0 -7 -32 22 -43 10 -4 16 -11 13 -16 -3 -5 1 -28 9 -51 11 -31 12 -41 2 -38
-6 3 -16 23 -22 45 -6 24 -15 38 -22 36 -7 -3 -16 2 -19 11 -9 22 -24 20 -24
-3 0 -37 -18 -31 -40 13 -11 24 -28 50 -36 57 -13 11 -14 9 -8 -17 4 -16 12
-40 19 -54 19 -39 46 -123 41 -128 -11 -11 -36 9 -51 42 -15 30 -21 35 -41 30
-21 -5 -24 -3 -22 17 2 14 -4 27 -17 33 -53 28 -63 41 -59 75 2 19 -2 42 -11
54 -8 12 -15 27 -15 35 0 7 -13 25 -30 39 -16 13 -30 33 -30 42 0 10 -3 21 -7
25 -4 4 -8 15 -8 24 0 11 -9 17 -25 18 -14 0 -35 5 -46 12 -18 9 -25 7 -44
-13 -14 -15 -35 -25 -52 -25 -15 0 -28 -4 -28 -10 0 -17 -18 -11 -25 9 -4 12
-12 17 -24 14 -10 -3 -22 0 -25 6 -13 20 -48 11 -96 -24 -26 -19 -55 -35 -63
-35 -8 0 -17 -3 -19 -7 -10 -23 -91 -83 -112 -83 -28 0 -82 -57 -92 -95 -3
-14 -10 -25 -15 -25 -14 0 -11 16 11 55 25 44 25 43 -2 47 -20 3 -19 4 8 16
75 35 79 38 76 59 -2 16 9 30 44 53 41 29 45 30 39 11 -9 -29 9 -27 51 5 34
27 37 49 4 39 -22 -7 -55 34 -40 49 28 28 -6 35 -45 10 -14 -9 -25 -13 -25 -9
0 12 44 44 61 45 9 0 27 9 40 21 20 17 21 20 5 15 -20 -7 -66 28 -66 48 0 6 5
3 11 -6 5 -10 16 -18 23 -18 18 0 57 48 46 55 -6 4 -14 -5 -20 -19 -11 -29
-32 -35 -28 -8 2 10 -3 17 -12 17 -8 0 -17 11 -20 25 -3 16 -13 26 -28 28 -28
4 -31 -28 -2 -35 41 -11 9 -87 -42 -99 -64 -14 -92 -12 -106 8 -13 18 -15 18
-27 1 -9 -12 -10 -23 -4 -35 21 -39 -10 -16 -40 30 -17 26 -31 41 -31 35 0 -7
-9 -13 -20 -13 -13 0 -20 7 -20 19 0 11 -4 23 -10 26 -5 3 -10 -1 -10 -9 0 -9
-4 -16 -9 -16 -14 0 -22 29 -15 56 5 18 -1 31 -23 51 -23 23 -28 35 -27 71 3
60 -28 55 -74 -14 -7 -10 -10 -13 -7 -6 8 17 -5 15 -24 -3 -9 -8 -30 -26 -48
-40 -19 -16 -30 -32 -26 -40 3 -10 -2 -15 -15 -15 -12 0 -23 -9 -27 -19 -3
-11 -15 -23 -26 -26 -10 -4 -24 -16 -30 -27 -10 -18 -9 -20 5 -15 8 3 18 2 21
-3 4 -6 1 -10 -5 -10 -6 0 -15 -12 -21 -27 l-11 -28 -14 33 c-13 30 -13 36 11
76 14 24 35 46 46 49 12 3 19 11 16 19 -9 26 24 67 93 113 66 44 91 66 73 64
-4 0 -26 -12 -49 -27z m66 -166 c0 -2 -9 -6 -20 -9 -11 -3 -18 -1 -14 4 5 9
34 13 34 5z m101 -72 c11 -11 17 -23 13 -26 -3 -4 4 -16 17 -29 l22 -22 -26
-23 c-17 -14 -25 -29 -21 -38 4 -11 0 -16 -15 -16 -14 0 -21 -6 -21 -20 0 -14
-5 -18 -16 -13 -9 3 -5 -5 9 -19 22 -22 25 -32 20 -67 -4 -29 -2 -41 7 -41 7
0 10 -7 7 -15 -4 -8 -2 -17 3 -20 6 -4 11 0 12 7 0 7 2 18 3 23 2 6 3 22 4 36
1 20 7 28 25 31 14 3 29 1 35 -5 6 -6 15 -4 26 7 23 22 38 21 25 -3 -5 -11
-19 -22 -29 -26 -11 -3 -25 -13 -33 -22 -12 -15 -10 -16 19 -10 29 6 33 4 39
-19 5 -21 11 -24 30 -20 17 5 24 2 24 -9 0 -8 -4 -15 -10 -15 -5 0 -10 -7 -10
-17 0 -14 -2 -14 -20 2 -11 10 -20 23 -20 29 0 22 -17 37 -33 30 -9 -3 -17
-11 -17 -16 0 -6 -8 -16 -17 -23 -9 -7 -17 -21 -18 -31 -1 -11 -5 -29 -9 -41
-5 -17 -3 -23 7 -23 9 0 17 -6 19 -12 3 -9 12 -8 32 6 28 18 28 18 21 -4 -6
-20 -5 -21 14 -11 12 7 21 16 21 21 0 6 7 10 15 10 22 0 19 -7 -20 -43 -32
-29 -46 -57 -27 -57 4 0 22 16 41 35 19 19 37 32 40 30 2 -3 -1 -11 -7 -17 -7
-7 -12 -22 -12 -35 0 -13 -4 -23 -10 -23 -5 0 -10 5 -10 11 0 5 -4 8 -9 4 -11
-6 31 -55 47 -55 6 0 19 -14 28 -32 9 -17 38 -54 65 -81 48 -49 59 -67 39 -67
-19 0 -89 50 -106 75 -16 25 -54 35 -54 14 0 -28 63 -112 87 -115 8 -1 20 -7
27 -13 32 -27 111 -62 114 -51 6 16 32 -8 32 -30 0 -23 28 -34 47 -19 11 10
18 7 34 -9 11 -12 24 -22 29 -22 6 0 10 -11 10 -25 0 -14 5 -25 10 -25 6 0 10
4 10 10 0 5 13 -4 30 -21 24 -25 34 -30 56 -25 21 6 25 4 21 -8 -4 -9 -2 -16
2 -16 5 0 11 6 14 13 7 19 14 6 19 -39 6 -40 5 -41 -27 -39 l-32 1 29 -28 c25
-23 32 -26 49 -15 17 10 22 9 30 -5 12 -22 49 -24 49 -3 0 9 -9 15 -23 15 -13
0 -32 7 -43 15 -19 14 -19 14 3 15 12 0 28 3 37 6 10 4 16 1 16 -9 0 -8 15
-26 34 -41 19 -14 41 -32 49 -40 11 -12 22 -13 51 -5 24 7 42 7 55 -1 11 -5
27 -7 35 -4 12 5 15 2 10 -9 -4 -11 4 -21 25 -32 17 -8 31 -23 31 -33 0 -24
19 -42 45 -42 16 0 17 2 5 10 -8 5 -11 12 -8 15 9 10 68 -5 68 -16 0 -6 9 -7
20 -4 24 8 29 -22 5 -31 -8 -4 -15 -16 -15 -28 0 -13 -3 -26 -7 -29 -11 -12
-33 15 -33 41 0 24 -1 24 -18 9 -21 -19 -47 -23 -36 -5 4 6 -9 -1 -29 -16 -24
-19 -37 -37 -37 -52 0 -13 -9 -28 -20 -34 -23 -12 -27 -40 -6 -40 8 0 17 -4
20 -9 3 -4 -6 -6 -19 -3 -16 3 -25 0 -25 -9 0 -7 -3 -9 -6 -6 -4 3 -16 1 -27
-4 -17 -10 -19 -9 -14 10 6 25 3 26 -27 6 -16 -11 -22 -22 -19 -35 4 -14 0
-20 -11 -20 -9 0 -16 -7 -16 -15 0 -15 31 -21 44 -7 7 7 86 12 86 5 0 -13 -35
-53 -46 -53 -24 0 -108 -46 -133 -74 -14 -14 -30 -26 -36 -26 -7 0 -20 -9 -31
-21 -15 -16 -27 -20 -56 -16 -39 5 -87 35 -88 54 0 6 -6 14 -12 17 -7 3 -1 4
14 1 15 -3 29 -1 32 4 3 5 38 12 76 16 63 6 72 10 85 34 13 26 12 28 -16 38
-32 12 -39 42 -15 62 8 7 17 23 20 37 4 14 18 29 31 34 38 14 30 28 -17 32
l-43 3 38 18 c20 10 37 22 37 27 0 6 6 10 14 10 8 0 16 6 19 13 3 9 13 8 37
-6 29 -16 34 -16 50 -2 19 17 40 20 40 5 0 -5 7 -10 15 -10 13 0 13 4 3 23
-23 40 -46 47 -72 22 -20 -21 -39 -19 -34 3 4 15 1 18 -17 14 -30 -5 -41 32
-14 50 17 13 17 14 -5 41 -17 21 -35 30 -77 36 -57 9 -73 6 -49 -9 13 -8 12
-10 -2 -10 -9 0 -19 6 -21 13 -3 6 -6 1 -6 -12 -1 -20 -3 -22 -16 -11 -9 7
-13 20 -10 29 5 18 -26 43 -42 33 -5 -4 -12 -15 -16 -24 -3 -10 -13 -18 -22
-18 -22 0 -19 7 16 41 17 17 25 29 18 28 -8 -1 -27 3 -42 9 -36 15 -57 15 -57
0 0 -8 -6 -7 -16 4 -9 9 -13 21 -10 27 10 15 49 14 66 -1 12 -11 12 -10 1 4
-13 18 -12 49 3 60 6 4 4 13 -3 22 -10 12 -17 14 -27 5 -8 -6 -11 -15 -8 -20
3 -5 1 -15 -3 -23 -6 -11 -15 -9 -45 10 -40 25 -75 70 -64 81 3 4 12 -2 20
-12 9 -13 15 -15 20 -6 11 16 5 21 -33 26 -27 3 -31 1 -26 -15 12 -36 -14 -29
-60 17 -25 26 -43 40 -39 30 4 -11 1 -17 -9 -17 -16 0 -47 26 -47 38 1 18 20
34 34 29 13 -5 14 -3 4 13 -13 21 -40 36 -80 44 -25 6 -26 5 -18 -23 4 -16 6
-32 2 -35 -3 -4 10 -22 28 -41 44 -45 33 -54 -22 -18 -53 34 -60 44 -46 60 8
10 7 13 -3 14 -31 3 -36 5 -53 22 -23 22 -48 22 -63 -2 -8 -13 -19 -17 -38
-14 -23 5 -29 15 -8 15 4 -1 16 7 26 16 21 19 89 22 95 4 2 -7 9 -9 14 -6 6 4
17 -1 24 -11 18 -25 29 -12 12 14 -9 14 -23 21 -45 21 -35 0 -41 8 -21 28 9 9
7 13 -8 19 -24 9 -40 28 -59 72 -17 39 -19 52 -4 31 8 -11 12 -12 16 -2 7 18
23 15 24 -5 1 -15 2 -16 6 -2 3 14 -32 89 -43 89 -2 0 -13 -9 -23 -19 -16 -16
-17 -21 -5 -25 9 -4 12 -14 8 -36 -5 -20 -3 -30 6 -30 7 0 10 -8 7 -20 -3 -12
0 -20 7 -20 7 0 19 -12 26 -26 12 -22 12 -27 0 -34 -23 -15 -30 -12 -41 17 -6
16 -17 35 -25 44 -8 9 -14 21 -12 27 2 6 -6 18 -17 27 -14 11 -16 18 -7 21 6
3 12 10 12 15 0 6 -6 9 -12 8 -28 -3 -33 3 -34 46 -1 32 3 45 13 45 7 0 13 6
13 13 0 39 -43 26 -60 -19 -8 -19 -17 -34 -21 -34 -22 0 -59 25 -55 37 9 21
-12 15 -24 -8 -9 -16 -8 -26 5 -45 18 -28 14 -39 -15 -47 -18 -4 -19 -3 -9 9
11 13 6 34 -6 23 -11 -12 -9 -54 3 -51 9 2 10 -3 4 -15 -5 -10 -12 -34 -16
-54 -5 -30 -2 -39 19 -59 15 -14 23 -30 20 -39 -3 -8 -1 -18 6 -21 8 -6 8 -9
0 -14 -6 -4 -11 -2 -11 3 0 6 -6 11 -14 11 -17 0 -28 24 -20 45 4 11 2 13 -9
9 -8 -3 -18 -1 -22 5 -12 20 -23 11 -28 -21 -6 -39 19 -88 45 -88 11 0 15 -5
12 -15 -8 -19 -34 -20 -34 -1 0 8 -16 33 -35 56 -51 61 -81 135 -89 218 -2 23
-6 45 -9 48 -12 12 -17 -56 -7 -101 6 -26 9 -49 7 -52 -6 -5 -24 44 -32 84 -4
18 -11 36 -17 39 -13 8 0 -96 15 -114 5 -7 7 -15 3 -19 -20 -21 -47 66 -50
167 -1 30 -8 73 -16 95 -9 29 -10 40 -1 43 6 2 9 8 5 13 -3 5 0 35 7 67 10 48
13 53 19 32 6 -24 7 -23 15 10 4 19 9 42 10 51 0 9 9 28 18 42 9 15 17 30 17
34 0 12 52 83 61 83 20 0 7 -36 -23 -62 -18 -16 -27 -26 -19 -22 7 3 17 1 21
-6 12 -19 80 39 74 61 -3 9 1 29 8 45 9 18 9 29 2 31 -12 4 -6 60 7 69 5 3 9
-4 9 -15 0 -28 10 -26 37 7 l22 27 17 -23 c12 -17 19 -21 27 -13 17 17 29 13
22 -9 -4 -14 -2 -20 9 -20 9 0 21 -8 27 -18 10 -16 16 -17 45 -8 42 13 45 31
5 23 -21 -4 -31 -2 -35 9 -3 8 -1 12 4 9 5 -3 19 -1 31 6 18 9 21 17 16 49 -3
22 0 43 7 50 8 8 12 6 14 -12 2 -13 12 -32 23 -44z m179 -120 c0 -8 -4 -12
-10 -9 -5 3 -10 10 -10 16 0 5 5 9 10 9 6 0 10 -7 10 -16z m77 -69 c-4 -8 -16
-15 -28 -15 -21 0 -21 0 2 19 26 21 35 20 26 -4z m159 -112 c-1 -16 -6 -35
-11 -43 -7 -11 -2 -10 19 3 27 18 28 18 33 -2 3 -12 12 -21 20 -21 10 0 12 -6
8 -20 -7 -23 5 -26 24 -7 10 10 11 6 5 -18 -9 -39 -12 -42 -56 -50 -40 -8 -50
5 -44 57 3 23 0 27 -18 25 -18 -2 -21 3 -18 33 2 27 25 70 37 70 2 0 2 -12 1
-27z m-945 -126 c-13 -13 -26 -3 -16 12 3 6 11 8 17 5 6 -4 6 -10 -1 -17z
m1132 -53 c6 -35 -30 -50 -55 -23 -30 30 -20 44 33 48 10 1 19 -9 22 -25z
m607 -84 c0 -11 -4 -20 -10 -20 -5 0 -10 9 -10 20 0 11 5 20 10 20 6 0 10 -9
10 -20z m30 -108 c0 -7 -4 -10 -10 -7 -5 3 -10 16 -10 28 0 18 2 19 10 7 5 -8
10 -21 10 -28z m190 -19 c27 -38 34 -58 35 -95 0 -47 15 -82 15 -37 0 21 3 20
22 -13 12 -21 29 -38 38 -38 15 0 33 -25 43 -60 2 -8 14 -15 28 -15 17 0 25
-6 27 -23 2 -15 8 -22 18 -18 18 7 30 -20 29 -64 -2 -76 -55 -115 -55 -40 0
45 -1 46 -35 24 l-25 -16 0 37 c0 27 -4 36 -13 32 -9 -3 -33 34 -72 115 -32
66 -64 122 -72 125 -7 3 -13 12 -13 20 0 8 -7 27 -15 43 -9 17 -11 31 -5 35 5
3 7 12 3 20 -11 31 15 13 47 -32z m-1543 24 c13 1 20 -3 17 -8 -9 -15 -44 -10
-62 8 -16 16 -16 16 3 8 11 -4 30 -8 42 -8z m93 -47 c0 -5 -4 -10 -10 -10 -5
0 -10 5 -10 10 0 6 5 10 10 10 6 0 10 -4 10 -10z m-140 -50 c0 -5 -8 -10 -17
-10 -15 0 -16 2 -3 10 19 12 20 12 20 0z m-220 -61 c0 -5 -4 -9 -10 -9 -5 0
-10 7 -10 16 0 8 5 12 10 9 6 -3 10 -10 10 -16z m320 -5 c0 -8 -4 -13 -9 -10
-5 3 -11 -15 -14 -40 -2 -26 -9 -49 -15 -53 -20 -13 -52 -77 -52 -104 0 -35
28 -34 46 1 l11 23 7 -23 c9 -33 8 -36 -11 -41 -11 -3 -7 -5 10 -6 16 0 37 4
48 9 15 8 19 7 19 -5 0 -8 -4 -15 -10 -15 -5 0 -10 -7 -10 -15 0 -14 -34 -55
-46 -55 -3 0 -2 9 1 21 6 18 4 20 -17 14 -12 -4 -31 -9 -40 -11 -13 -4 -18 0
-18 15 0 12 -6 21 -14 21 -13 0 -26 29 -39 88 -3 12 1 29 9 36 8 8 14 20 14
26 0 20 34 70 47 70 8 0 16 -7 19 -15 4 -8 11 -15 16 -15 6 0 6 6 -2 15 -13
16 -6 48 16 70 20 19 34 19 34 -1z m-193 -9 c9 -25 -4 -29 -17 -6 -7 15 -7 21
0 21 6 0 13 -7 17 -15z m123 -20 c-7 -9 -15 -13 -19 -10 -3 3 1 10 9 15 21 14
24 12 10 -5z m90 0 c0 -8 -7 -15 -15 -15 -26 0 -18 20 13 29 1 1 2 -6 2 -14z
m-290 -4 c0 -12 -20 -25 -27 -18 -7 7 6 27 18 27 5 0 9 -4 9 -9z m2000 -22 c0
-6 -4 -7 -10 -4 -5 3 -10 11 -10 16 0 6 5 7 10 4 6 -3 10 -11 10 -16z m-2290
-35 c0 -8 -4 -14 -10 -14 -5 0 -10 9 -10 21 0 11 5 17 10 14 6 -3 10 -13 10
-21z m770 -44 c0 -5 -4 -10 -10 -10 -5 0 -10 5 -10 10 0 6 5 10 10 10 6 0 10
-4 10 -10z m-41 -44 c9 -11 7 -18 -13 -34 -14 -10 -23 -22 -20 -24 2 -3 0 -16
-6 -29 -10 -23 -10 -23 -6 -2 2 13 0 26 -5 29 -13 8 -11 48 3 62 16 16 33 15
47 -2z m146 -23 c10 -15 18 -38 17 -50 -2 -25 30 -45 56 -36 7 3 19 0 27 -7 8
-6 19 -9 25 -5 7 4 14 -2 17 -14 3 -12 16 -27 30 -34 l24 -13 -21 -19 c-18
-16 -20 -17 -14 -2 4 11 1 17 -7 17 -21 -1 -49 -25 -49 -44 0 -10 -9 -16 -25
-16 -22 0 -24 3 -15 19 5 11 15 22 22 24 8 4 7 6 -3 6 -9 1 -19 -6 -23 -14 -7
-20 -26 -19 -26 1 0 14 -3 14 -15 4 -9 -7 -14 -19 -11 -27 7 -16 -16 -17 -32
-1 -9 9 -15 8 -26 -7 -8 -11 -19 -16 -30 -12 -9 4 -16 2 -16 -3 0 -6 -7 -10
-15 -10 -25 0 -17 20 13 31 l27 11 -29 23 c-16 12 -26 27 -22 33 3 6 2 14 -4
17 -8 5 -7 11 1 22 11 13 15 13 26 -4 12 -15 15 -16 23 -3 14 22 12 33 -4 27
-11 -5 -14 4 -13 39 l2 45 33 -6 c31 -6 33 -4 27 14 -9 29 6 26 30 -6z m155
-20 c0 -20 -18 -15 -30 6 -15 28 -12 33 10 19 11 -7 20 -18 20 -25z m-781 -7
c7 -8 15 -30 18 -50 5 -34 33 -73 33 -47 0 27 18 7 22 -24 4 -31 1 -35 -19
-35 -13 0 -23 5 -23 10 0 6 -11 23 -25 38 -15 16 -23 33 -19 44 3 10 1 18 -5
18 -6 0 -11 14 -11 30 0 32 11 38 29 16z m521 -16 c0 -19 -28 -60 -41 -60 -10
0 -19 40 -12 55 4 12 19 20 46 24 4 0 7 -8 7 -19z m332 3 c18 -16 25 -43 11
-43 -12 0 -43 33 -43 47 0 17 10 17 32 -4z m-898 -8 c-4 -8 -8 -15 -10 -15 -2
0 -4 7 -4 15 0 8 4 15 10 15 5 0 7 -7 4 -15z m2026 -43 c0 -5 -11 -14 -25 -20
-26 -12 -33 -4 -13 16 14 14 38 16 38 4z m-1090 -36 c15 -19 10 -20 -25 -4
-14 6 -25 17 -25 25 0 16 29 4 50 -21z m1170 -7 c-7 -11 -14 -18 -17 -15 -3 3
0 12 7 21 18 21 23 19 10 -6z m-1116 -42 c5 -22 4 -28 -6 -24 -7 2 -20 1 -29
-4 -11 -5 -28 -3 -48 7 -26 13 -30 19 -20 30 13 16 54 20 44 4 -3 -5 -1 -10 4
-10 6 0 11 4 11 9 0 7 29 21 36 17 1 -1 4 -14 8 -29z m31 14 c-3 -6 -11 -11
-17 -11 -6 0 -6 6 2 15 14 17 26 13 15 -4z m832 -47 c-3 -3 -12 -4 -19 -1 -8
3 -5 6 6 6 11 1 17 -2 13 -5z m-782 -22 c-3 -3 -11 0 -18 7 -9 10 -8 11 6 5
10 -3 15 -9 12 -12z m-596 -64 c1 -16 -3 -28 -8 -28 -5 0 -7 -9 -4 -20 7 -28
-2 -25 -37 11 -38 40 -38 58 0 66 22 4 30 11 31 27 1 19 2 18 9 -4 4 -14 8
-37 9 -52z m1121 62 c0 -5 -7 -10 -16 -10 -8 0 -12 5 -9 10 3 6 10 10 16 10 5
0 9 -4 9 -10z m-835 -10 c3 -5 0 -10 -9 -10 -8 0 -16 -6 -19 -12 -2 -7 -8 -10
-12 -6 -7 7 14 37 27 38 4 0 10 -4 13 -10z m65 -20 c0 -13 -7 -20 -18 -20 -26
0 -34 11 -21 27 17 20 39 16 39 -7z m254 4 c21 -8 21 -54 1 -54 -8 0 -15 5
-15 10 0 6 6 10 13 10 8 0 7 4 -3 10 -22 14 -27 12 -33 -10 -3 -11 -12 -20
-21 -20 -23 0 -20 31 4 37 11 3 20 9 20 14 0 10 12 11 34 3z m676 -14 c0 -5
-2 -10 -4 -10 -3 0 -8 5 -11 10 -3 6 -1 10 4 10 6 0 11 -4 11 -10z m-880 -35
c0 -28 -25 -44 -42 -27 -6 6 -2 16 13 31 29 26 29 26 29 -4z m840 15 c0 -5 -5
-10 -11 -10 -5 0 -7 5 -4 10 3 6 8 10 11 10 2 0 4 -4 4 -10z m-1515 -10 c3 -5
2 -10 -4 -10 -5 0 -13 5 -16 10 -3 6 -2 10 4 10 5 0 13 -4 16 -10z m185 0 c0
-5 -4 -10 -10 -10 -5 0 -10 5 -10 10 0 6 5 10 10 10 6 0 10 -4 10 -10z m275
-7 c-8 -20 -9 -52 -1 -60 12 -12 46 10 47 30 0 22 1 22 12 -1 9 -20 8 -26 -5
-33 -9 -5 -14 -17 -12 -26 3 -11 -4 -23 -17 -32 -19 -11 -24 -11 -33 1 -6 8
-21 20 -33 27 -23 12 -32 51 -13 51 6 0 10 8 10 18 0 22 19 42 38 42 10 0 12
-6 7 -17z m-400 -13 c3 -5 2 -10 -4 -10 -5 0 -13 5 -16 10 -3 6 -2 10 4 10 5
0 13 -4 16 -10z m130 -52 c19 -20 25 -33 17 -36 -6 -2 -12 -10 -12 -18 0 -17
-16 -18 -27 -1 -4 7 -20 20 -35 30 -16 10 -28 26 -28 37 0 33 49 26 85 -12z
m-277 4 c3 -9 -2 -13 -14 -10 -9 1 -19 9 -22 16 -3 9 2 13 14 10 9 -1 19 -9
22 -16z m1392 -22 c0 -5 -4 -10 -10 -10 -5 0 -10 5 -10 10 0 6 5 10 10 10 6 0
10 -4 10 -10z m-594 -22 c5 -13 7 -27 5 -33 -2 -5 -4 -18 -6 -28 -7 -32 -15
-38 -36 -26 -19 9 -19 12 -6 27 13 15 13 19 0 31 -19 17 -24 11 -26 -33 -2
-39 -8 -44 -26 -22 -20 24 -2 65 38 85 48 25 48 25 57 -1z m-736 -7 c0 -12
-30 -22 -43 -14 -7 4 -3 9 9 14 26 10 34 10 34 0z m380 2 c-1 -15 -39 -58 -46
-51 -13 14 6 58 26 58 11 0 20 -3 20 -7z m1265 -12 c-3 -11 -1 -22 4 -25 15
-10 6 -54 -18 -87 -25 -34 -39 -33 -21 1 9 18 9 24 0 30 -7 4 -10 12 -6 18 3
6 0 17 -8 25 -13 12 -13 17 0 36 20 27 58 29 49 2z m-1355 -57 c4 -33 9 -39
32 -42 23 -3 26 0 21 19 -5 19 -4 20 16 10 24 -13 26 -23 10 -52 -9 -17 -7
-21 10 -26 35 -9 24 -23 -14 -18 -19 2 -35 0 -35 -5 0 -6 -4 -10 -10 -10 -5 0
-10 7 -10 15 0 8 4 15 10 15 5 0 7 6 4 14 -6 16 -61 19 -70 4 -3 -4 -10 -6
-15 -2 -6 4 -6 11 2 20 8 10 10 33 5 71 l-7 56 23 -15 c15 -10 25 -28 28 -54z
m1124 51 c-4 -10 -20 -15 -45 -15 -30 0 -37 3 -33 15 4 10 20 15 45 15 30 0
37 -3 33 -15z m46 1 c0 -2 -7 -7 -16 -10 -8 -3 -12 -2 -9 4 6 10 25 14 25 6z
m-170 -25 c0 -6 -4 -13 -10 -16 -5 -3 -10 1 -10 9 0 9 5 16 10 16 6 0 10 -4
10 -9z m-835 -81 c18 -20 15 -38 -4 -25 -15 9 -33 45 -23 45 5 0 17 -9 27 -20z
m249 -1 c-6 -11 -24 -2 -24 11 0 5 7 7 15 4 8 -4 12 -10 9 -15z m598 -21 c-7
-7 -13 -4 -21 10 -13 25 -3 35 17 16 10 -11 12 -18 4 -26z m-673 17 c7 -7 -5
-11 -39 -13 -44 -2 -60 5 -46 19 9 8 76 3 85 -6z m945 -10 c-9 -14 -20 -22
-26 -19 -5 3 -2 14 8 25 25 27 37 23 18 -6z m-791 -45 c4 -17 0 -20 -25 -20
-16 0 -41 9 -55 20 -14 11 -32 20 -40 20 -8 0 -11 5 -7 11 3 6 17 9 30 6 14
-2 27 0 30 4 8 14 61 -18 67 -41z m687 25 c0 -8 -7 -15 -15 -15 -26 0 -18 20
13 29 1 1 2 -6 2 -14z m-1170 1 c0 -3 -4 -8 -10 -11 -5 -3 -10 -1 -10 4 0 6 5
11 10 11 6 0 10 -2 10 -4z m1224 -45 c3 -5 -3 -11 -15 -14 -16 -4 -18 -3 -8 9
13 16 16 17 23 5z m31 -11 c3 -5 1 -10 -4 -10 -6 0 -11 5 -11 10 0 6 2 10 4
10 3 0 8 -4 11 -10z m-192 -13 c3 -8 1 -20 -4 -28 -5 -8 -9 -12 -10 -9 0 3 -2
15 -5 28 -4 24 10 31 19 9z m-1364 -6 c7 -5 12 -14 9 -21 -2 -7 -10 -4 -22 9
-19 21 -12 28 13 12z m744 -54 c10 -41 3 -72 -14 -62 -6 4 -8 13 -5 21 4 10
-2 14 -19 14 -30 0 -33 16 -4 25 15 5 19 13 16 27 -3 12 -1 18 6 15 6 -2 16
-20 20 -40z m-153 18 c10 -12 15 -13 20 -4 4 6 10 7 13 3 3 -5 -1 -15 -9 -21
-10 -10 -18 -8 -41 12 -21 18 -24 24 -12 25 9 0 22 -7 29 -15z m-450 -15 c0
-3 15 -11 33 -19 44 -20 64 -51 32 -51 -19 0 -131 56 -140 70 -4 6 9 9 34 7
23 -1 41 -4 41 -7z m710 -81 c0 -25 3 -30 16 -25 12 5 15 2 9 -11 -4 -10 -10
-26 -12 -36 -3 -10 -12 -16 -19 -13 -7 3 -16 0 -20 -6 -4 -6 -15 3 -27 21 -11
18 -16 35 -13 39 4 3 11 0 16 -8 5 -8 12 -11 15 -8 4 4 -5 19 -19 35 -14 15
-26 31 -26 35 0 5 18 8 40 8 38 0 40 -1 40 -31z m430 12 c0 -4 -9 -20 -20 -34
-11 -14 -20 -32 -20 -41 0 -10 -15 -19 -42 -26 -24 -6 -59 -17 -78 -25 -49
-20 -229 -40 -241 -28 -7 7 17 14 73 23 150 22 218 38 251 60 30 20 26 22 -15
5 -13 -5 -15 -2 -11 15 4 13 11 19 20 16 8 -4 24 5 36 19 22 24 47 33 47 16z
m-509 -18 c13 -16 12 -17 -3 -4 -17 13 -22 21 -14 21 2 0 10 -8 17 -17z m395
-11 c-18 -16 -18 -16 -6 6 6 13 14 21 18 18 3 -4 -2 -14 -12 -24z m-306 -103
c0 -5 -7 -9 -15 -9 -8 0 -15 -9 -15 -20 0 -11 -4 -20 -9 -20 -5 0 -11 9 -14
20 -4 17 -14 20 -64 21 l-58 2 52 6 c28 4 54 9 57 12 9 8 66 -2 66 -12z m-293
-13 c4 -3 3 -9 0 -13 -10 -9 -89 16 -82 26 5 9 71 -2 82 -13z"/>
<path d="M2775 4410 c-3 -5 -1 -10 4 -10 6 0 11 5 11 10 0 6 -2 10 -4 10 -3 0
-8 -4 -11 -10z"/>
<path d="M2952 4345 c-9 -47 -10 -71 -2 -79 7 -7 10 -4 10 9 0 10 7 27 17 37
13 14 14 23 5 41 -6 12 -12 31 -14 41 -2 10 -9 -12 -16 -49z"/>
<path d="M2750 4360 c0 -5 5 -10 11 -10 5 0 7 5 4 10 -3 6 -8 10 -11 10 -2 0
-4 -4 -4 -10z"/>
<path d="M2796 4334 c-4 -10 -1 -14 6 -12 15 5 23 28 10 28 -5 0 -13 -7 -16
-16z"/>
<path d="M2760 4271 c0 -6 5 -13 10 -16 6 -3 10 1 10 9 0 9 -4 16 -10 16 -5 0
-10 -4 -10 -9z"/>
<path d="M3104 4209 c4 -72 14 -109 28 -109 6 0 7 9 3 23 -4 12 -11 49 -16 81
-12 80 -19 82 -15 5z"/>
<path d="M2922 4236 c-7 -16 -10 -31 -7 -34 2 -3 0 -12 -7 -19 -13 -16 4 -33
34 -33 9 0 18 -6 21 -12 8 -24 19 0 20 49 2 44 0 48 -20 46 -13 -2 -23 4 -25
14 -2 12 -7 9 -16 -11z m24 -31 c17 -16 14 -18 -10 -9 -9 3 -16 10 -16 15 0
13 9 11 26 -6z"/>
<path d="M3050 4250 c0 -5 5 -10 10 -10 6 0 10 5 10 10 0 6 -4 10 -10 10 -5 0
-10 -4 -10 -10z"/>
<path d="M3065 4211 c-3 -6 1 -21 10 -33 16 -23 16 -23 9 7 -8 37 -10 39 -19
26z"/>
<path d="M2700 4186 c0 -2 7 -9 15 -16 9 -7 15 -8 15 -2 0 5 -7 12 -15 16 -8
3 -15 4 -15 2z"/>
<path d="M3185 4170 c3 -5 8 -10 11 -10 2 0 4 5 4 10 0 6 -5 10 -11 10 -5 0
-7 -4 -4 -10z"/>
<path d="M3245 3930 c-3 -5 -1 -10 4 -10 6 0 11 5 11 10 0 6 -2 10 -4 10 -3 0
-8 -4 -11 -10z"/>
<path d="M3270 3913 c0 -22 19 -63 29 -63 6 0 8 8 4 18 -10 26 -33 58 -33 45z"/>
<path d="M3452 3774 c9 -9 21 -15 27 -13 6 2 -2 10 -17 17 -25 11 -25 11 -10
-4z"/>
<path d="M3580 3728 c0 -9 7 -19 16 -22 25 -10 27 -1 4 19 -17 15 -20 16 -20
3z"/>
<path d="M4146 3321 c-8 -12 3 -41 15 -41 12 0 12 37 0 45 -5 3 -12 1 -15 -4z"/>
<path d="M4090 3230 c-12 -23 2 -27 19 -6 8 9 8 16 2 20 -6 4 -15 -3 -21 -14z"/>
<path d="M3988 3223 c-4 -16 -2 -23 7 -23 22 0 45 12 45 23 0 7 -4 7 -12 -1
-17 -17 -26 -15 -30 6 -3 14 -5 13 -10 -5z"/>
<path d="M3945 3130 c-4 -6 6 -10 22 -10 22 0 25 2 13 10 -19 12 -27 12 -35 0z"/>
<path d="M3270 3490 c0 -5 5 -10 10 -10 6 0 10 5 10 10 0 6 -4 10 -10 10 -5 0
-10 -4 -10 -10z"/>
<path d="M3780 4919 c0 -5 -4 -8 -9 -4 -17 10 -33 -33 -21 -55 6 -11 8 -20 4
-20 -4 0 1 -9 11 -20 11 -12 13 -20 6 -20 -6 0 -14 7 -17 15 -13 33 -23 12
-20 -42 3 -52 6 -60 40 -89 21 -18 43 -31 50 -28 7 3 32 -9 57 -26 48 -32 96
-39 105 -15 4 8 12 15 20 15 8 0 14 5 14 10 0 6 -7 10 -16 10 -8 0 -13 4 -10
8 7 12 -43 54 -55 46 -6 -3 -10 0 -8 7 4 31 -2 48 -19 53 -9 3 -22 16 -27 28
-6 13 -17 24 -25 24 -8 1 -19 2 -24 3 -6 0 -1 8 10 16 19 15 19 15 -1 31 -11
8 -27 19 -35 24 -12 7 -12 11 -1 24 12 14 11 16 -8 16 -11 0 -21 -5 -21 -11z
m36 -76 c-10 -10 -19 5 -10 18 6 11 8 11 12 0 2 -7 1 -15 -2 -18z"/>
<path d="M3538 4879 c-19 -11 -25 -49 -8 -49 6 0 10 -6 10 -13 0 -8 9 -24 19
-36 16 -18 23 -21 38 -12 17 10 16 11 -4 17 -28 8 -29 20 -3 27 11 3 20 10 20
15 0 5 -9 12 -20 15 -12 3 -20 14 -20 26 0 23 -7 25 -32 10z"/>
<path d="M3095 4830 c-11 -17 5 -32 21 -19 7 6 11 15 8 20 -7 12 -21 11 -29
-1z"/>
<path d="M4060 4790 c0 -5 4 -10 9 -10 6 0 13 5 16 10 3 6 -1 10 -9 10 -9 0
-16 -4 -16 -10z"/>
<path d="M4133 4785 c-14 -10 -19 -22 -16 -35 3 -11 0 -20 -6 -20 -6 0 -11 7
-11 15 0 8 -4 15 -10 15 -20 0 -9 -25 27 -62 20 -21 33 -38 27 -38 -5 0 -15 5
-22 12 -16 16 -15 3 3 -32 9 -17 12 -30 9 -30 -4 0 2 -10 13 -22 12 -13 23
-32 25 -42 1 -11 16 -24 33 -29 54 -17 95 -69 64 -79 -8 -3 -8 -10 2 -26 18
-28 29 -28 22 -1 -5 19 -4 20 16 10 11 -7 21 -16 21 -20 0 -5 16 -18 35 -30
20 -11 40 -31 45 -43 5 -13 9 -17 9 -10 1 8 -8 25 -19 39 -19 24 -19 43 0 43
4 0 32 -20 62 -45 45 -39 54 -44 64 -31 6 9 13 13 16 11 3 -3 5 11 6 30 2 39
-19 56 -76 61 -19 2 -40 8 -48 15 -19 15 -18 39 1 39 23 0 18 16 -10 34 -17
11 -25 26 -25 46 0 36 -51 97 -98 117 -18 8 -47 29 -63 48 -17 18 -40 35 -52
37 -14 2 -21 10 -21 21 2 21 3 20 -23 2z m58 -171 l24 -26 -27 12 c-15 7 -29
19 -32 26 -8 22 8 16 35 -12z m80 -21 c37 -27 49 -43 31 -43 -11 0 -92 58 -92
65 0 12 25 3 61 -22z m-36 -23 c3 -5 1 -10 -4 -10 -6 0 -11 5 -11 10 0 6 2 10
4 10 3 0 8 -4 11 -10z m110 -50 c3 -5 1 -10 -4 -10 -6 0 -11 5 -11 10 0 6 2
10 4 10 3 0 8 -4 11 -10z m122 -123 c4 -7 0 -8 -11 -4 -10 4 -22 7 -27 7 -5 0
-9 4 -9 9 0 12 38 2 47 -12z m73 -17 c0 -5 -4 -10 -10 -10 -5 0 -10 5 -10 10
0 6 5 10 10 10 6 0 10 -4 10 -10z"/>
<path d="M3324 4768 c-3 -4 4 -8 15 -8 11 0 22 4 26 9 3 6 -4 9 -16 8 -11 -1
-23 -5 -25 -9z"/>
<path d="M4040 4756 c0 -8 5 -18 10 -21 6 -3 10 1 10 9 0 8 -4 18 -10 21 -5 3
-10 -1 -10 -9z"/>
<path d="M4290 4761 c0 -5 5 -13 11 -16 6 -4 8 -13 5 -21 -6 -16 12 -18 34 -4
12 7 12 13 4 27 -12 20 -54 31 -54 14z"/>
<path d="M3360 4725 c0 -2 5 -15 12 -29 9 -21 16 -24 37 -19 34 8 39 13 13 13
-12 0 -27 9 -34 20 -12 18 -28 27 -28 15z"/>
<path d="M4587 4670 c22 -38 72 -94 79 -88 6 7 -26 70 -49 96 -32 35 -52 29
-30 -8z"/>
<path d="M3560 4629 c0 -5 5 -7 10 -4 6 3 10 8 10 11 0 2 -4 4 -10 4 -5 0 -10
-5 -10 -11z"/>
<path d="M3640 4590 c-24 -15 -7 -18 25 -4 23 10 25 13 10 13 -11 1 -27 -3
-35 -9z"/>
<path d="M4527 4571 c-4 -17 -3 -21 5 -13 5 5 8 16 6 23 -3 8 -7 3 -11 -10z"/>
<path d="M4130 4576 c0 -2 8 -10 18 -17 15 -13 16 -12 3 4 -13 16 -21 21 -21
13z"/>
<path d="M3920 4561 c0 -5 9 -11 20 -14 13 -3 20 0 20 9 0 8 -9 14 -20 14 -11
0 -20 -4 -20 -9z"/>
<path d="M4470 4525 c0 -8 4 -15 9 -15 5 0 11 -8 14 -17 4 -17 4 -17 12 0 4
10 2 23 -5 32 -16 19 -30 19 -30 0z"/>
<path d="M4425 4460 c3 -5 8 -10 11 -10 2 0 4 5 4 10 0 6 -5 10 -11 10 -5 0
-7 -4 -4 -10z"/>
<path d="M4194 4411 c10 -11 14 -25 10 -37 -6 -18 -6 -18 11 -3 14 14 15 21 6
38 -7 11 -19 21 -28 21 -15 0 -15 -2 1 -19z"/>
<path d="M4120 4382 c0 -6 9 -12 20 -15 11 -3 20 -3 20 -1 0 2 -9 8 -20 14
-11 6 -20 7 -20 2z"/>
<path d="M4250 4357 c0 -9 4 -18 10 -22 5 -3 7 -12 3 -20 -3 -11 2 -15 17 -15
22 0 22 1 7 18 -10 10 -15 21 -12 24 3 3 -1 11 -10 18 -12 10 -15 10 -15 -3z"/>
<path d="M4355 4320 c3 -5 8 -10 11 -10 2 0 4 5 4 10 0 6 -5 10 -11 10 -5 0
-7 -4 -4 -10z"/>
<path d="M4322 4309 c2 -7 10 -15 17 -17 8 -3 12 1 9 9 -2 7 -10 15 -17 17 -8
3 -12 -1 -9 -9z"/>
<path d="M4860 4051 c0 -6 5 -13 10 -16 6 -3 10 1 10 9 0 9 -4 16 -10 16 -5 0
-10 -4 -10 -9z"/>
<path d="M4830 4032 c0 -13 15 -28 33 -35 27 -10 20 16 -8 30 -14 6 -25 8 -25
5z"/>
<path d="M4970 4005 c0 -8 7 -15 15 -15 46 0 86 -41 99 -102 6 -26 36 -41 36
-18 0 23 20 5 89 -80 40 -49 76 -92 81 -95 13 -8 72 124 63 139 -5 7 -39 52
-78 99 l-70 87 -117 0 c-98 0 -118 -3 -118 -15z"/>
<path d="M5520 4006 c0 -8 15 -17 35 -20 19 -4 39 -16 45 -27 15 -27 27 -429
13 -429 -13 0 -37 28 -148 168 -44 56 -83 102 -87 102 -5 0 -8 -8 -8 -19 0
-10 -11 -39 -25 -65 -14 -26 -25 -51 -25 -56 0 -5 21 -33 46 -62 96 -110 134
-155 186 -218 40 -47 61 -65 79 -65 l24 0 2 170 c3 209 21 462 34 487 6 10 18
17 27 16 9 -2 18 5 20 15 3 15 -7 17 -107 17 -88 0 -111 -3 -111 -14z m6 -510
c10 -8 16 -17 13 -20 -10 -10 -61 13 -54 24 8 14 18 13 41 -4z m34 -46 c0 -5
-4 -10 -10 -10 -5 0 -10 5 -10 10 0 6 5 10 10 10 6 0 10 -4 10 -10z"/>
<path d="M5834 4004 c3 -9 6 -17 6 -19 0 -2 9 -1 19 2 10 3 28 0 40 -6 20 -11
21 -19 21 -219 l1 -207 31 35 c106 121 108 123 109 159 1 20 3 59 5 86 1 28 3
74 3 103 l1 53 57 -3 c48 -3 58 0 61 15 3 16 -10 17 -178 17 -162 0 -181 -2
-176 -16z"/>
<path d="M6226 4000 c1 -8 3 -17 3 -19 1 -3 6 0 13 7 15 15 31 16 22 1 -8 -14
138 -151 149 -140 4 5 0 44 -10 87 l-19 79 -81 0 c-66 0 -80 -3 -77 -15z"/>
<path d="M4870 3956 c0 -8 5 -18 10 -21 6 -3 10 3 10 14 0 12 -4 21 -10 21 -5
0 -10 -6 -10 -14z"/>
<path d="M4747 3921 c-18 -7 -18 -8 1 -31 24 -29 31 -25 23 11 -5 20 -10 25
-24 20z"/>
<path d="M4660 3880 c0 -5 5 -10 10 -10 6 0 10 5 10 10 0 6 -4 10 -10 10 -5 0
-10 -4 -10 -10z"/>
<path d="M5097 3833 c-10 -18 -16 -119 -8 -132 5 -8 16 -11 26 -7 15 5 16 13
10 49 -5 23 -8 54 -7 70 1 25 -11 37 -21 20z"/>
<path d="M6230 3774 c-6 -14 -10 -28 -10 -31 0 -2 -10 -13 -22 -24 -16 -12
-39 -18 -75 -19 -54 0 -59 -3 -103 -61 -14 -18 -42 -51 -62 -73 -38 -40 -38
-41 -38 -123 0 -91 6 -83 -65 -87 -11 -1 -21 -9 -23 -18 -3 -17 16 -18 290
-18 l293 0 23 76 c35 113 25 119 -62 36 -64 -60 -81 -72 -121 -77 -68 -11
-156 -1 -170 18 -13 18 -29 256 -19 282 5 12 17 14 58 9 69 -8 94 -21 108 -61
7 -19 19 -33 29 -33 17 0 17 3 10 203 -1 35 -28 36 -41 1z"/>
<path d="M5089 3668 c0 -2 -5 -59 -9 -128 -5 -69 -12 -139 -15 -156 -7 -30 -6
-32 22 -30 48 4 53 12 48 74 -3 31 -7 98 -10 147 -2 50 -4 91 -5 93 0 1 -7 2
-15 2 -8 0 -15 -1 -16 -2z"/>
<path d="M4990 3335 c0 -11 12 -15 45 -15 48 0 60 14 23 24 -40 10 -68 7 -68
-9z"/>
<path d="M5150 3340 c0 -5 5 -10 10 -10 6 0 10 5 10 10 0 6 -4 10 -10 10 -5 0
-10 -4 -10 -10z"/>
<path d="M5203 3343 c-20 -8 -15 -23 7 -23 11 0 20 7 20 15 0 15 -6 17 -27 8z"/>
<path d="M6510 2670 c0 -5 -7 -7 -15 -4 -8 3 -36 1 -62 -5 -62 -15 -213 -22
-213 -10 0 14 -17 11 -34 -7 -13 -12 -16 -12 -16 -2 0 19 -68 20 -94 2 -11 -8
-16 -14 -11 -14 5 0 0 -6 -10 -14 -10 -7 -16 -20 -13 -28 5 -11 -1 -15 -23
-15 -36 0 -37 9 -4 27 14 7 25 17 25 22 0 13 -16 9 -30 -6 -22 -27 -78 -56
-84 -43 -3 9 -7 9 -14 -1 -6 -10 -15 -10 -37 -2 -17 6 -32 7 -39 1 -6 -5 -45
-7 -86 -5 -75 5 -167 -17 -155 -36 3 -4 -1 -8 -8 -7 -49 1 -80 -6 -98 -24 -11
-11 -26 -18 -32 -16 -15 6 -98 -40 -114 -63 -7 -10 -26 -20 -44 -24 -25 -5
-30 -10 -26 -26 3 -14 -1 -24 -15 -31 -18 -10 -19 -13 -5 -26 11 -12 19 -13
36 -4 29 16 28 -5 -1 -21 -13 -7 -24 -21 -24 -31 -2 -14 1 -15 12 -7 10 9 18
7 35 -9 25 -23 44 -27 54 -11 3 6 12 10 18 10 28 -1 -30 -30 -60 -30 -21 0
-33 -5 -33 -14 0 -13 -57 -43 -73 -38 -4 1 -10 -5 -13 -13 -4 -10 -13 -13 -26
-9 -15 4 -18 3 -13 -6 5 -9 4 -11 -3 -6 -6 4 -24 0 -39 -7 -17 -9 -52 -14 -88
-12 -33 1 -68 -2 -77 -6 -10 -6 -19 -5 -23 1 -6 10 -48 4 -70 -9 -5 -3 -12 -6
-15 -6 -10 -1 -110 -58 -111 -64 0 -3 -2 -17 -4 -31 -3 -21 -1 -19 11 8 8 17
21 32 30 32 13 0 14 -3 5 -14 -9 -10 -8 -15 4 -20 8 -3 21 -3 29 0 7 3 20 -1
27 -8 19 -18 94 -22 111 -6 16 15 68 21 68 7 0 -5 -5 -9 -11 -9 -5 0 -7 -5 -4
-10 4 -6 10 -8 15 -5 5 3 33 -8 63 -25 29 -16 64 -30 76 -30 12 0 33 -7 46
-16 44 -29 104 -37 133 -18 20 13 39 15 102 10 62 -6 94 -3 160 14 89 23 189
58 259 92 41 20 47 20 71 6 16 -9 34 -12 46 -8 33 12 123 -7 171 -37 25 -15
62 -37 82 -48 33 -18 34 -19 13 -23 -13 -2 -34 3 -47 12 -36 24 -145 27 -174
4 -13 -10 -31 -18 -39 -18 -9 0 -24 -7 -34 -17 -10 -9 -28 -21 -41 -27 -14 -7
-23 -23 -25 -41 -2 -17 -9 -33 -15 -37 -8 -5 -6 -9 6 -14 9 -3 17 -12 17 -20
0 -17 7 -17 50 -3 25 9 34 9 40 0 4 -7 40 -14 85 -17 43 -3 86 -9 96 -15 29
-15 62 -11 55 7 -3 8 -2 12 4 9 5 -3 37 3 71 15 73 23 69 23 69 10 0 -5 -9
-10 -21 -10 -11 0 -17 -4 -14 -10 10 -16 43 -12 54 7 8 14 12 15 25 4 14 -12
22 -10 54 13 39 27 95 35 108 15 3 -6 21 -17 38 -24 54 -23 116 -74 146 -121
40 -64 61 -165 67 -331 7 -164 1 -195 -63 -326 l-43 -88 27 -10 c59 -23 142
-31 257 -26 145 7 215 27 175 52 -25 15 -125 152 -138 189 -11 29 -16 96 -19
221 -2 99 -8 202 -12 229 l-9 49 61 66 c90 99 158 161 222 205 48 34 60 38 76
28 19 -12 24 -7 20 25 -1 7 11 15 26 18 15 3 44 10 63 15 29 8 38 6 58 -13 22
-20 22 -22 6 -34 -10 -7 -26 -13 -37 -13 -10 0 -15 -4 -12 -10 3 -5 19 -10 35
-10 16 0 32 -4 35 -10 12 -19 26 -10 20 13 l-6 22 20 -23 c11 -13 25 -21 30
-18 5 4 12 2 16 -4 3 -5 18 -10 32 -10 22 0 24 2 12 16 -12 15 -11 16 11 9 14
-4 31 -12 38 -17 8 -7 12 -7 12 0 0 13 -62 50 -98 59 -29 7 -97 46 -106 61 -8
13 13 28 51 36 18 4 34 3 38 -3 3 -6 33 -11 65 -11 32 0 62 -4 65 -10 9 -15
25 -12 25 5 0 19 -6 19 65 -9 44 -18 68 -35 90 -64 22 -30 39 -42 65 -47 19
-3 49 -10 65 -16 17 -7 46 -14 65 -16 19 -3 40 -9 45 -13 38 -28 233 -46 256
-22 7 6 34 12 60 12 55 0 79 7 79 24 0 13 -41 52 -52 48 -5 -1 -16 6 -26 16
-15 15 -35 19 -87 20 -45 1 -73 6 -85 17 -9 8 -26 15 -37 15 -23 0 -71 35 -62
44 3 4 24 8 45 10 21 3 61 12 88 20 34 11 53 13 60 6 5 -5 17 -10 25 -10 8 0
28 -12 43 -27 18 -17 32 -24 36 -17 4 5 33 16 64 24 54 12 75 30 62 51 -3 5
-14 9 -24 9 -10 0 -31 15 -46 33 -15 17 -31 32 -36 32 -5 0 -15 8 -22 18 -7 9
-18 17 -25 17 -6 0 -11 4 -11 8 0 5 -30 24 -66 43 -37 18 -76 43 -89 55 -21
19 -98 54 -155 69 -30 9 -70 44 -70 62 0 7 -8 13 -17 13 -17 1 -17 1 0 14 44
33 -4 49 -159 50 -109 2 -134 5 -148 19 -10 9 -26 17 -36 17 -10 0 -22 5 -25
11 -4 5 -12 8 -18 6 -7 -2 -26 1 -43 8 -30 12 -84 10 -84 -4 0 -4 -8 -7 -17
-8 -10 0 -37 -4 -61 -8 -26 -4 -48 -3 -56 4 -7 6 -26 13 -42 15 -32 4 -60 13
-87 27 -19 10 -73 21 -114 22 -13 1 -23 4 -23 8 0 11 -39 18 -45 8 -3 -4 -19
-7 -34 -6 -22 1 -27 5 -19 14 14 17 -12 26 -76 27 -28 1 -54 5 -58 10 -4 6
-13 4 -23 -4 -13 -10 -13 -15 -3 -21 11 -7 11 -9 0 -9 -8 0 -10 -5 -6 -12 5
-8 2 -9 -12 -4 -10 5 -26 9 -34 9 -8 0 -26 8 -39 18 -13 10 -27 16 -32 13 -12
-7 -40 21 -31 30 3 4 -1 4 -11 0 -10 -3 -17 -1 -17 5 0 6 -9 11 -21 11 -13 0
-18 4 -13 13 4 6 -2 4 -13 -5 -21 -19 -34 -23 -32 -10 4 21 -3 23 -21 7 -15
-13 -20 -14 -20 -5 0 11 -3 11 -12 2 -18 -18 -31 -15 -26 6 4 13 -2 17 -24 19
-15 1 -28 -2 -28 -7z m-388 -52 c-7 -7 -12 -8 -12 -2 0 14 12 26 19 19 2 -3
-1 -11 -7 -17z m8 -28 c-19 -12 -30 -12 -30 -1 0 10 31 20 40 14 2 -2 -2 -8
-10 -13z m910 -9 c0 -10 -26 -9 -36 2 -4 4 2 7 14 7 12 0 22 -4 22 -9z m-1033
-37 c-3 -3 -12 -4 -19 -1 -8 3 -5 6 6 6 11 1 17 -2 13 -5z m1376 -61 c3 -5 -6
-9 -19 -9 -13 -1 -24 2 -24 7 0 11 37 12 43 2z m327 -37 c0 -3 -4 -8 -10 -11
-5 -3 -10 -1 -10 4 0 6 5 11 10 11 6 0 10 -2 10 -4z m-1095 -16 c3 -5 -1 -10
-10 -10 -9 0 -13 5 -10 10 3 6 8 10 10 10 2 0 7 -4 10 -10z m-555 -10 c0 -5
-2 -10 -4 -10 -3 0 -8 5 -11 10 -3 6 -1 10 4 10 6 0 11 -4 11 -10z m-670 -20
c0 -5 -6 -10 -14 -10 -8 0 -18 5 -21 10 -3 6 3 10 14 10 12 0 21 -4 21 -10z
m2290 -10 c-19 -13 -30 -13 -30 0 0 6 10 10 23 10 18 0 19 -2 7 -10z m80 -14
c0 -11 -19 -15 -25 -6 -3 5 1 10 9 10 9 0 16 -2 16 -4z m-2440 -10 c0 -2 -7
-9 -15 -16 -12 -10 -15 -10 -15 4 0 9 7 16 15 16 8 0 15 -2 15 -4z m1399 -13
c-3 -21 2 -33 16 -33 8 0 15 -4 15 -9 0 -11 -50 -11 -72 0 -21 11 -24 35 -5
42 19 8 47 8 46 0z m1206 -13 c-3 -5 -12 -10 -20 -10 -8 0 -17 5 -20 10 -4 6
5 10 20 10 15 0 24 -4 20 -10z m165 0 c0 -5 -4 -10 -10 -10 -5 0 -10 5 -10 10
0 6 5 10 10 10 6 0 10 -4 10 -10z m-2720 -40 c0 -5 -6 -10 -14 -10 -8 0 -23
-3 -33 -7 -16 -6 -16 -5 -4 10 15 18 51 23 51 7z m960 -17 c21 -24 21 -27 6
-38 -9 -7 -14 -19 -11 -27 8 -19 -15 -29 -47 -20 -22 6 -22 7 7 13 28 6 29 7
8 14 -23 7 -33 35 -13 35 6 0 8 11 4 25 -8 34 15 33 46 -2z m765 7 c3 -5 1
-10 -4 -10 -6 0 -11 5 -11 10 0 6 2 10 4 10 3 0 8 -4 11 -10z m-1543 -16 c-13
-8 -29 -13 -37 -10 -27 10 -16 22 23 24 37 3 37 3 14 -14z m48 -4 c0 -5 -4
-10 -10 -10 -5 0 -10 5 -10 10 0 6 5 10 10 10 6 0 10 -4 10 -10z m-240 -10 c0
-5 -5 -10 -11 -10 -5 0 -7 5 -4 10 3 6 8 10 11 10 2 0 4 -4 4 -10z m70 0 c0
-5 -4 -10 -10 -10 -5 0 -10 5 -10 10 0 6 5 10 10 10 6 0 10 -4 10 -10z m1050
0 c0 -5 -2 -10 -4 -10 -3 0 -8 5 -11 10 -3 6 -1 10 4 10 6 0 11 -4 11 -10z
m18 -37 c17 -10 32 -23 32 -29 0 -7 -26 -16 -57 -22 -48 -8 -59 -7 -69 6 -9
12 -11 60 -5 79 2 5 70 -19 99 -34z m652 27 c0 -5 -4 -10 -9 -10 -6 0 -13 5
-16 10 -3 6 1 10 9 10 9 0 16 -4 16 -10z m50 -6 c0 -9 -5 -14 -12 -12 -18 6
-21 28 -4 28 9 0 16 -7 16 -16z m-990 -24 c0 -32 -16 -38 -51 -20 -24 13 -25
37 -1 43 43 11 52 8 52 -23z m2055 20 c3 -5 1 -10 -4 -10 -6 0 -11 5 -11 10 0
6 2 10 4 10 3 0 8 -4 11 -10z m-1520 -20 c3 -5 -1 -10 -9 -10 -9 0 -16 5 -16
10 0 6 4 10 9 10 6 0 13 -4 16 -10z m290 -2 c12 -12 -30 -23 -90 -23 -45 0
-60 4 -63 15 -2 13 11 15 72 15 41 0 77 -3 81 -7z m150 1 c4 -6 5 -13 2 -16
-8 -7 -47 7 -47 18 0 13 37 11 45 -2z m-1325 -29 c-20 -13 -40 -13 -40 0 0 6
12 10 28 10 21 0 24 -2 12 -10z m745 0 c3 -5 -3 -10 -14 -10 -12 0 -21 5 -21
10 0 6 6 10 14 10 8 0 18 -4 21 -10z m-905 -10 c0 -5 -5 -10 -11 -10 -5 0 -7
5 -4 10 3 6 8 10 11 10 2 0 4 -4 4 -10z m1910 6 c0 -3 -4 -8 -10 -11 -5 -3
-10 -1 -10 4 0 6 5 11 10 11 6 0 10 -2 10 -4z m-1608 -24 c11 -11 9 -17 -12
-33 -14 -10 -35 -18 -47 -17 -11 2 -30 -5 -41 -15 -11 -10 -36 -20 -56 -24
-29 -4 -37 -2 -43 13 -3 11 -11 22 -16 25 -15 10 16 49 34 44 9 -3 31 1 49 9
40 17 114 16 132 -2z m133 -2 c3 -5 17 -10 30 -10 13 0 27 -4 30 -10 3 -5 18
-10 31 -10 16 0 24 -5 22 -12 -3 -7 -12 -13 -21 -12 -9 0 -51 1 -92 2 -59 2
-75 5 -75 17 0 8 9 15 20 15 13 0 18 5 14 15 -7 17 31 22 41 5z m-368 -6 c-3
-3 -12 -4 -19 -1 -8 3 -5 6 6 6 11 1 17 -2 13 -5z m-357 -24 c0 -5 -4 -10 -10
-10 -5 0 -10 5 -10 10 0 6 5 10 10 10 6 0 10 -4 10 -10z m1521 -17 c-12 -20
-14 -14 -5 12 4 9 9 14 11 11 3 -2 0 -13 -6 -23z m909 17 c0 -5 -4 -10 -10
-10 -5 0 -10 5 -10 10 0 6 5 10 10 10 6 0 10 -4 10 -10z m-1490 -20 c25 -25
25 -23 0 -87 -11 -29 -16 -53 -11 -53 5 0 11 6 14 14 6 15 47 11 47 -5 0 -5
12 -9 28 -9 35 0 77 -22 77 -40 0 -10 -13 -15 -40 -16 -59 -3 -194 22 -213 39
-25 21 -118 67 -138 67 -10 0 -25 7 -34 15 -8 8 -35 16 -58 17 -23 2 -42 6
-42 9 0 3 13 18 29 33 18 17 31 24 35 17 4 -6 37 -11 73 -11 48 0 72 -5 85
-17 16 -14 20 -15 36 -1 19 17 73 47 85 48 4 0 16 -9 27 -20z m198 3 c2 -8 -6
-13 -22 -13 -26 0 -40 12 -29 24 11 11 46 2 51 -11z m-800 -11 c2 -7 -3 -12
-12 -12 -9 0 -16 7 -16 16 0 17 22 14 28 -4z m931 9 c21 -6 22 -8 8 -19 -13
-11 -20 -11 -39 -1 -13 7 -31 12 -40 10 -10 -1 -18 3 -18 8 0 12 51 13 89 2z
m519 -14 c3 -17 -1 -18 -30 -12 -40 9 -42 10 -33 25 11 18 59 8 63 -13z m102
6 c0 -32 -50 -45 -76 -19 -22 23 -17 27 31 24 25 -2 45 -4 45 -5z m330 -3 c0
-5 -4 -10 -10 -10 -5 0 -10 5 -10 10 0 6 5 10 10 10 6 0 10 -4 10 -10z m-1125
-10 c3 -5 -1 -10 -9 -10 -9 0 -16 5 -16 10 0 6 4 10 9 10 6 0 13 -4 16 -10z
m224 -11 c-16 -10 -23 -4 -14 10 3 6 11 8 17 5 6 -4 5 -9 -3 -15z m311 -4 c-1
-5 6 -12 15 -15 14 -5 14 -8 -4 -24 -19 -17 -20 -17 -36 8 -9 14 -14 30 -10
36 8 13 37 9 35 -5z m990 5 c0 -5 -4 -10 -10 -10 -5 0 -10 5 -10 10 0 6 5 10
10 10 6 0 10 -4 10 -10z m-505 -11 c11 -16 3 -17 -35 -3 l-35 12 32 1 c17 1
35 -4 38 -10z m775 -18 c25 -16 29 -21 14 -19 -11 2 -29 -4 -39 -12 -48 -40
-147 -47 -175 -12 -9 11 -26 23 -38 26 -12 4 -20 12 -16 17 3 5 9 7 13 5 4 -3
24 1 44 8 56 19 156 12 197 -13z m-2985 9 c-3 -5 -10 -10 -16 -10 -5 0 -9 5
-9 10 0 6 7 10 16 10 8 0 12 -4 9 -10z m1066 -43 c-8 -8 -11 -5 -11 9 0 27 14
41 18 19 2 -9 -1 -22 -7 -28z m179 33 c0 -5 -4 -10 -10 -10 -5 0 -10 5 -10 10
0 6 5 10 10 10 6 0 10 -4 10 -10z m-786 -20 c7 -7 7 -16 0 -28 -12 -18 -55
-22 -88 -7 -15 7 -17 5 -12 -12 4 -12 1 -24 -6 -30 -30 -23 -208 -50 -208 -31
0 5 7 11 15 14 8 4 15 10 15 16 0 13 -42 -1 -57 -19 -6 -8 -36 -17 -66 -20
l-56 -6 -15 37 c-15 35 -14 38 7 59 16 16 35 22 69 23 27 1 48 -3 48 -7 0 -5
6 -9 14 -9 7 0 19 -7 26 -15 11 -14 15 -14 29 -1 20 18 74 14 96 -7 18 -19 30
-20 60 -7 18 8 17 9 -7 9 -58 2 -35 34 37 52 35 9 85 3 99 -11z m991 10 c-8
-13 6 -13 39 -1 23 9 25 7 31 -22 4 -18 9 -39 11 -48 4 -14 -7 -17 -68 -18
-40 -1 -89 -3 -108 -3 -41 -2 -134 41 -138 64 -3 18 57 32 73 17 15 -15 119
-11 141 6 23 17 27 18 19 5z m585 6 c0 -3 -4 -8 -10 -11 -5 -3 -10 -1 -10 4 0
6 5 11 10 11 6 0 10 -2 10 -4z m140 -16 c13 -8 13 -10 -2 -10 -9 0 -20 5 -23
10 -8 13 5 13 25 0z m870 -10 c0 -5 -5 -10 -11 -10 -5 0 -7 5 -4 10 3 6 8 10
11 10 2 0 4 -4 4 -10z m-1155 -30 c3 -5 -1 -10 -10 -10 -9 0 -13 5 -10 10 3 6
8 10 10 10 2 0 7 -4 10 -10z m-2038 -18 c9 -15 7 -21 -9 -31 -25 -15 -62 -5
-54 16 3 8 6 19 6 24 0 17 45 9 57 -9z m60 -29 c-3 -3 -11 -2 -17 2 -9 6 -9
10 1 16 14 8 27 -7 16 -18z m51 15 c12 -12 17 -58 6 -58 -5 0 -45 19 -52 25
-6 5 18 45 26 45 5 0 13 -5 20 -12z m1802 2 c0 -5 -4 -10 -9 -10 -6 0 -13 5
-16 10 -3 6 1 10 9 10 9 0 16 -4 16 -10z m265 -10 c3 -5 -1 -10 -9 -10 -9 0
-16 5 -16 10 0 6 4 10 9 10 6 0 13 -4 16 -10z m650 -22 c14 -6 25 -15 25 -20
0 -5 -13 -2 -30 7 -45 23 -41 34 5 13z m-975 -19 c0 -5 -4 -9 -10 -9 -5 0 -10
7 -10 16 0 8 5 12 10 9 6 -3 10 -10 10 -16z m263 2 c12 -12 -33 -41 -64 -41
-19 0 -28 6 -32 22 -3 12 -3 26 0 31 6 10 83 1 96 -12z m797 -1 c0 -5 6 -10
14 -10 20 0 75 -32 80 -47 3 -7 -5 -15 -19 -19 -30 -8 -99 32 -91 52 3 8 -1
14 -10 14 -8 0 -12 5 -9 10 3 6 13 10 21 10 8 0 14 -4 14 -10z m-1950 -40 c0
-5 -4 -10 -10 -10 -5 0 -10 5 -10 10 0 6 5 10 10 10 6 0 10 -4 10 -10z m1000
1 c0 -13 -28 -22 -35 -11 -3 4 1 11 7 13 20 8 28 8 28 -2z m870 -1 c12 -8 11
-10 -7 -10 -13 0 -23 5 -23 10 0 13 11 13 30 0z m335 -20 c3 -5 -1 -10 -10
-10 -9 0 -13 5 -10 10 3 6 8 10 10 10 2 0 7 -4 10 -10z m65 -10 c0 -5 -2 -10
-4 -10 -3 0 -8 5 -11 10 -3 6 -1 10 4 10 6 0 11 -4 11 -10z m23 -42 c-33 -9
-40 -4 -24 16 10 12 16 13 32 3 18 -11 18 -12 -8 -19z m-2467 0 c4 -6 3 -8 -4
-4 -6 3 -13 2 -17 -4 -4 -6 -11 -7 -17 -4 -6 4 -5 10 3 15 19 12 27 11 35 -3z
m154 -7 c0 -5 -9 -7 -20 -4 -11 3 -20 7 -20 9 0 2 9 4 20 4 11 0 20 -4 20 -9z
m2252 -13 c-17 -8 -26 -8 -34 0 -9 9 -4 12 23 11 32 0 33 -1 11 -11z"/>
<path d="M6790 2630 c0 -5 5 -10 10 -10 6 0 10 5 10 10 0 6 -4 10 -10 10 -5 0
-10 -4 -10 -10z"/>
<path d="M6948 2633 c7 -3 16 -2 19 1 4 3 -2 6 -13 5 -11 0 -14 -3 -6 -6z"/>
<path d="M1964 2569 c-75 -7 -209 -34 -258 -52 -25 -9 -27 -12 -12 -22 9 -7
16 -20 16 -29 0 -9 7 -19 15 -22 8 -4 15 -15 15 -25 0 -10 7 -19 15 -19 8 0
15 -9 15 -20 0 -26 18 -25 77 4 75 37 149 51 268 50 198 -1 347 -60 524 -211
28 -24 42 -31 38 -20 -4 11 5 41 24 80 20 39 27 63 20 65 -6 2 -8 8 -5 14 4 6
9 5 15 -3 6 -10 13 -6 30 14 12 16 28 26 35 23 9 -3 14 1 14 13 0 20 -68 55
-190 96 -181 61 -429 86 -656 64z m-169 -109 c3 -5 1 -10 -4 -10 -6 0 -11 5
-11 10 0 6 2 10 4 10 3 0 8 -4 11 -10z m905 -70 c0 -5 -5 -10 -11 -10 -5 0 -7
5 -4 10 3 6 8 10 11 10 2 0 4 -4 4 -10z"/>
<path d="M2870 2531 c0 -17 14 -18 40 -5 l25 14 -32 0 c-18 0 -33 -4 -33 -9z"/>
<path d="M2946 2524 c-9 -9 -25 -36 -36 -60 -13 -29 -27 -44 -39 -44 -10 0
-26 -9 -36 -20 -16 -18 -17 -23 -4 -48 23 -45 23 -48 1 -29 -23 21 -46 14 -37
-12 3 -10 -3 -20 -17 -26 -12 -6 -35 -36 -52 -67 l-30 -57 29 -28 c15 -15 43
-52 62 -80 31 -48 60 -72 47 -39 -3 7 4 30 15 50 12 20 21 43 21 50 0 7 7 20
17 27 9 8 22 28 30 46 9 22 18 31 28 27 18 -7 19 -20 4 -30 -6 -3 -8 -16 -5
-27 3 -14 -3 -28 -18 -42 -56 -52 -94 -153 -64 -171 8 -5 9 -2 5 9 -5 14 0 17
31 17 53 0 66 -11 57 -49 -7 -34 2 -39 36 -20 16 8 18 13 9 24 -7 8 -8 20 -4
26 5 9 10 7 20 -5 11 -16 13 -16 19 4 4 11 4 33 1 48 -4 15 -8 56 -11 92 -3
36 -10 86 -17 112 -10 40 -13 44 -23 31 -13 -18 -35 -10 -35 12 0 7 12 28 26
45 26 30 26 33 20 123 -10 132 -16 145 -50 111z"/>
<path d="M1656 2453 c-6 -14 -5 -15 5 -6 7 7 10 15 7 18 -3 3 -9 -2 -12 -12z"/>
<path d="M1680 2430 c0 -5 5 -10 10 -10 6 0 10 5 10 10 0 6 -4 10 -10 10 -5 0
-10 -4 -10 -10z"/>
<path d="M1590 2419 c0 -5 5 -7 10 -4 6 3 10 8 10 11 0 2 -4 4 -10 4 -5 0 -10
-5 -10 -11z"/>
<path d="M1440 2387 c-40 -20 -45 -26 -45 -57 0 -34 -2 -36 -55 -53 -93 -29
-203 -157 -135 -157 8 0 15 7 15 15 0 8 5 15 10 15 18 0 11 -29 -10 -40 -13
-7 -26 -7 -37 -2 -23 13 -82 -59 -128 -158 -20 -41 -42 -88 -50 -103 -17 -33
-20 -67 -5 -67 11 0 45 -68 37 -76 -3 -3 -11 5 -18 17 -24 46 -36 51 -49 19
-51 -123 -77 -456 -46 -600 24 -116 49 -187 64 -182 6 2 12 -1 12 -7 0 -6 -4
-11 -9 -11 -5 0 -7 -9 -4 -20 5 -19 6 -19 18 -4 11 15 13 14 19 -12 15 -60 30
-84 50 -78 11 4 16 2 12 -4 -3 -5 3 -20 13 -33 22 -29 32 -76 17 -84 -8 -3 -7
-7 2 -11 15 -7 16 -24 2 -24 -6 0 -16 12 -22 26 -9 20 -9 27 1 33 8 5 11 17 6
30 -5 18 -10 19 -27 10 -13 -7 -18 -7 -14 -1 4 6 -8 31 -26 56 -31 44 -50 57
-29 19 6 -10 26 -53 45 -95 59 -131 142 -240 176 -231 18 5 18 7 3 29 -8 13
-20 24 -25 24 -6 0 -5 -7 2 -15 7 -9 10 -18 7 -21 -3 -3 -19 14 -36 38 -17 23
-36 49 -42 56 -24 29 1 22 30 -8 16 -18 35 -29 41 -25 13 8 50 -22 50 -42 0
-7 4 -13 9 -13 9 0 23 -33 25 -59 1 -7 16 -22 34 -31 29 -16 31 -20 18 -33
-18 -18 -13 -23 79 -83 116 -77 248 -134 308 -134 18 0 18 1 -2 26 -28 35 -27
53 2 50 32 -4 49 -15 41 -27 -4 -6 -11 -6 -20 2 -31 26 -23 0 11 -34 49 -49
108 -60 330 -61 168 0 264 10 320 33 11 5 47 14 80 21 33 7 65 16 70 20 6 4
48 27 95 50 47 24 99 55 116 69 17 14 42 33 55 41 60 38 289 295 289 325 0 15
-63 65 -82 64 -7 0 -36 -30 -64 -67 -29 -38 -76 -86 -105 -109 -64 -48 -236
-136 -299 -152 -25 -7 -65 -18 -90 -26 -25 -7 -73 -17 -107 -21 -35 -3 -60
-10 -58 -15 3 -4 -4 -13 -15 -19 -22 -12 -27 -1 -8 18 9 9 -5 12 -62 12 -69 0
-77 -2 -95 -26 -11 -15 -36 -44 -56 -65 -19 -21 -40 -48 -46 -61 -11 -23 -11
-22 -18 10 -6 24 -11 30 -20 22 -12 -10 -25 -4 -25 13 0 5 15 6 33 3 29 -5 35
-3 45 19 6 14 17 24 24 23 8 -2 14 9 16 25 2 16 9 27 19 27 13 0 13 3 3 15 -7
8 -21 15 -31 15 -26 0 -114 41 -181 83 -31 21 -59 37 -61 37 -2 0 -34 28 -71
62 -85 78 -169 204 -227 336 -42 98 -67 134 -49 72 5 -16 5 -32 0 -35 -5 -3
-11 8 -15 25 -6 27 -8 28 -22 15 -13 -13 -13 -21 -3 -48 26 -67 65 -139 82
-151 10 -7 21 -28 24 -47 l6 -34 -21 25 c-25 29 -91 156 -91 174 0 6 -11 28
-25 46 -23 32 -24 35 -8 42 13 5 14 7 3 7 -8 1 1 14 23 32 39 32 47 62 24 93
-12 16 -14 16 -26 2 -7 -9 -11 -22 -8 -31 4 -8 2 -17 -3 -20 -6 -4 -10 -1 -10
4 0 16 -37 13 -72 -5 -25 -13 -32 -14 -39 -2 -13 20 -11 24 16 42 13 9 33 26
44 38 12 13 33 21 51 21 32 0 35 8 24 66 -6 29 -9 31 -40 25 -27 -5 -34 -3
-34 9 0 8 -6 18 -12 21 -15 6 39 56 61 56 10 0 12 9 7 38 -3 20 -6 42 -6 49 0
6 -9 9 -20 6 -17 -5 -20 0 -21 33 -1 39 -1 39 -12 12 -6 -16 -14 -28 -19 -28
-4 0 -5 6 -2 14 3 8 -2 28 -10 44 -9 17 -13 38 -10 46 3 9 1 29 -4 46 -15 41
11 42 28 0 10 -24 10 -33 0 -46 -11 -12 -10 -18 3 -31 13 -13 19 -14 31 -4 8
7 20 10 26 6 5 -3 10 0 10 7 2 78 41 312 59 350 11 26 21 51 21 56 0 5 14 42
30 82 17 40 30 74 30 75 0 2 -8 2 -17 1 -21 -1 -53 56 -34 62 7 2 5 13 -8 31
-12 17 -18 36 -14 49 3 11 -2 34 -10 51 -13 25 -13 34 -1 55 7 14 12 26 11 26
-1 0 -22 -10 -47 -23z m-50 -195 c0 -5 -15 -21 -32 -38 -18 -16 -27 -22 -20
-14 6 8 12 22 12 31 0 16 12 26 33 28 4 1 7 -3 7 -7z m-80 -37 c0 -12 -28 -35
-44 -35 -14 0 -5 30 12 39 24 14 32 13 32 -4z m91 -9 c-8 -10 -7 -25 6 -60 10
-25 21 -46 25 -46 4 0 8 -15 8 -34 0 -19 5 -38 10 -41 12 -8 13 -45 0 -65 -6
-10 -9 -5 -8 19 1 18 -4 36 -10 40 -16 10 -32 58 -32 96 0 19 -4 37 -10 40
-11 7 -14 48 -3 58 12 13 25 7 14 -7z m-119 -141 c4 -21 2 -24 -13 -20 -10 3
-21 0 -26 -8 -4 -8 -17 -16 -28 -19 -16 -3 -20 -12 -21 -51 -2 -54 -24 -93
-24 -42 0 27 -1 28 -16 14 -14 -15 -14 -20 4 -60 36 -82 42 -100 42 -124 0
-18 4 -23 15 -19 9 4 15 0 15 -10 0 -17 -17 -21 -37 -8 -14 9 -55 110 -49 121
3 4 1 24 -4 45 -5 21 -4 51 1 68 5 20 5 36 -1 43 -15 18 -1 49 15 35 11 -9 12
-7 8 9 -4 16 -1 21 16 21 11 0 21 -5 21 -11 0 -5 4 -8 10 -4 5 3 6 13 3 22 -5
13 -2 15 20 9 16 -4 27 -2 27 4 0 21 18 9 22 -15z m34 -145 c4 -30 4 -52 0
-49 -4 4 -9 26 -12 50 -2 24 -7 51 -10 59 -3 10 -2 12 5 5 5 -5 13 -35 17 -65z
m-116 -55 c0 -8 -4 -15 -10 -15 -5 0 -10 7 -10 15 0 8 5 15 10 15 6 0 10 -7
10 -15z m150 -38 c0 -5 -4 -5 -10 -2 -5 3 -10 14 -10 23 0 15 2 15 10 2 5 -8
10 -19 10 -23z m-12 -47 c5 -23 6 -40 1 -40 -5 0 -9 9 -9 19 0 11 -4 23 -10
26 -12 8 -13 35 -1 35 5 0 13 -18 19 -40z m-323 -29 c-3 -5 -1 -12 5 -16 5 -3
10 -1 10 4 0 23 17 9 47 -41 18 -29 30 -54 27 -57 -3 -3 -10 1 -15 9 -8 11 -9
9 -4 -8 12 -41 14 -78 5 -92 -6 -9 -4 -20 6 -31 12 -14 41 -89 30 -78 -24 24
-106 145 -106 157 0 9 -7 24 -17 34 -15 17 -15 18 6 18 18 0 20 4 15 28 -4 15
-14 35 -22 45 -14 16 -14 19 -2 27 19 12 23 12 15 1z m387 -68 c11 -14 4 -43
-10 -43 -5 0 -9 21 -9 48 0 26 2 38 5 27 2 -11 9 -26 14 -32z m-201 10 c1 -10
1 -21 1 -24 -1 -4 8 -15 18 -24 25 -22 26 -36 3 -32 -30 4 -41 16 -36 36 3 10
0 22 -6 25 -16 10 -13 36 4 36 8 0 16 -8 16 -17z m-66 -73 c3 -5 -1 -10 -9
-10 -9 0 -16 5 -16 10 0 6 4 10 9 10 6 0 13 -4 16 -10z m45 -52 c9 -3 22 -18
30 -34 8 -16 22 -34 30 -40 9 -7 26 -32 38 -57 13 -25 36 -57 52 -71 18 -15
28 -31 24 -40 -3 -8 -1 -23 5 -34 9 -16 7 -21 -9 -25 -13 -3 -20 0 -20 8 0 20
-19 28 -35 15 -10 -9 -15 -7 -20 9 -3 12 -4 25 0 30 3 5 1 12 -4 15 -5 3 -12
23 -15 43 -11 59 -17 74 -27 68 -5 -4 -13 4 -18 17 -5 13 -20 34 -33 48 -14
14 -28 39 -32 55 -5 25 -4 28 6 14 7 -8 20 -18 28 -21z m-180 -39 c0 -5 -4 -9
-10 -9 -5 0 -10 7 -10 16 0 8 5 12 10 9 6 -3 10 -10 10 -16z m40 -59 c0 -5 -4
-10 -10 -10 -5 0 -10 5 -10 10 0 6 5 10 10 10 6 0 10 -4 10 -10z m40 -38 c-6
-2 -10 -11 -10 -19 0 -9 6 -13 15 -10 14 6 55 -35 55 -54 0 -18 -25 -8 -47 19
-15 18 -22 22 -23 12 0 -16 83 -100 99 -100 11 0 51 -80 51 -103 0 -11 8 -15
26 -14 15 1 29 -4 31 -11 3 -8 -1 -10 -12 -6 -11 5 -16 2 -15 -7 6 -37 0 -50
-22 -47 -47 7 -88 58 -88 111 0 13 -5 28 -12 35 -17 17 0 28 22 14 27 -16 35
-15 16 3 -8 8 -19 15 -23 15 -11 0 -73 68 -73 79 0 4 -10 18 -21 30 -17 18
-19 25 -9 31 7 4 13 22 14 39 l1 31 17 -23 c9 -12 13 -23 8 -25z m-60 -282 c0
-5 -2 -10 -4 -10 -3 0 -8 5 -11 10 -3 6 -1 10 4 10 6 0 11 -4 11 -10z m377
-22 c-3 -8 -6 -5 -6 6 -1 11 2 17 5 13 3 -3 4 -12 1 -19z m-133 -88 c23 0 48
-37 41 -59 -3 -12 -11 -18 -17 -15 -7 5 -8 2 -4 -5 5 -7 19 -16 32 -21 25 -10
34 -40 12 -40 -7 0 5 -16 27 -35 29 -25 35 -35 22 -35 -10 0 -20 6 -23 14 -3
8 -14 16 -25 19 -10 3 -24 18 -30 33 -5 16 -14 31 -18 34 -14 9 -41 72 -35 81
3 5 -5 18 -17 28 -13 11 -19 23 -15 30 6 9 12 7 23 -8 8 -12 20 -21 27 -21z
m96 -87 c0 -20 -16 -8 -23 17 -4 17 -3 19 9 9 8 -6 14 -18 14 -26z m0 -138 c7
-14 19 -25 27 -25 16 0 17 -17 1 -22 -20 -7 121 -182 147 -183 14 0 19 -45 6
-45 -6 0 -11 7 -11 16 0 8 -4 12 -10 9 -15 -9 -120 118 -120 145 0 5 -9 14
-20 20 -15 8 -19 17 -15 31 4 10 2 19 -3 19 -7 0 -32 42 -32 55 0 14 18 2 30
-20z m242 -22 c10 -9 18 -22 18 -28 0 -21 28 -67 32 -54 2 7 9 9 17 5 7 -5 10
-14 7 -22 -3 -8 1 -14 10 -14 12 0 15 -6 10 -23 -4 -18 2 -31 29 -54 19 -17
36 -26 38 -19 5 15 57 -20 57 -39 0 -18 -12 -19 -28 -3 -18 18 -14 -4 6 -32 9
-14 24 -26 32 -28 8 -2 18 -9 22 -15 6 -9 10 -9 17 2 7 11 10 11 17 0 4 -7 3
-14 -4 -17 -6 -2 -9 -9 -6 -17 3 -8 13 -11 22 -8 12 5 14 2 9 -11 -5 -13 -3
-17 7 -13 8 3 22 -3 32 -14 19 -22 13 -24 -19 -8 -21 12 -21 11 -4 -8 17 -19
23 -43 11 -43 -12 0 -62 70 -83 118 -6 12 -16 22 -23 22 -19 1 -46 26 -110
101 -59 71 -145 195 -127 183 7 -4 10 -1 7 7 -3 8 -11 13 -17 12 -6 -2 -11 6
-11 17 0 24 8 25 32 3z m-402 -94 c7 -11 9 -24 5 -27 -7 -7 -35 25 -35 40 0
16 19 8 30 -13z m1724 -35 c3 -8 2 -12 -4 -9 -6 3 -10 10 -10 16 0 14 7 11 14
-7z m-1274 -97 c-1 -13 -26 16 -41 48 -7 13 -1 10 15 -8 14 -15 26 -33 26 -40z
m1256 28 c-4 -14 -11 -25 -17 -25 -6 0 -9 7 -6 15 4 8 1 18 -5 21 -8 5 -5 10
8 14 25 10 28 6 20 -25z m74 20 c0 -12 -40 -48 -47 -42 -3 4 -1 7 6 7 7 0 11
6 8 14 -3 8 -3 17 0 20 8 7 33 8 33 1z m-1100 -87 c0 -5 -9 -4 -20 2 -11 6
-18 15 -14 21 6 11 34 -7 34 -23z m-274 -68 c8 0 14 -7 14 -15 0 -8 -4 -15
-10 -15 -10 0 -31 33 -29 47 0 4 3 2 6 -4 2 -7 11 -13 19 -13z m848 -15 c-4
-8 -8 -15 -10 -15 -2 0 -4 7 -4 15 0 8 4 15 10 15 5 0 7 -7 4 -15z m-67 -1
c-3 -3 -12 -4 -19 -1 -8 3 -5 6 6 6 11 1 17 -2 13 -5z m-747 -24 c0 -5 -5 -10
-11 -10 -5 0 -7 5 -4 10 3 6 8 10 11 10 2 0 4 -4 4 -10z m683 -7 c-8 -24 -24
-43 -34 -43 -9 0 -1 28 14 48 14 18 27 15 20 -5z m-610 -24 c18 -20 18 -21 -2
-14 -10 3 -22 1 -26 -5 -3 -6 -10 -8 -15 -5 -5 3 -2 14 8 25 9 10 17 19 17 19
0 1 9 -8 18 -20z m553 -5 c-3 -9 -6 -20 -6 -25 0 -5 -9 -9 -20 -9 -24 0 -25 8
-3 32 20 22 37 24 29 2z m-42 -63 c4 -5 1 -22 -4 -37 -8 -21 -14 -24 -22 -16
-17 17 -25 15 -32 -10 -5 -19 -8 -21 -16 -8 -13 21 -12 30 3 30 8 0 20 11 27
25 14 25 34 33 44 16z m176 -4 c0 -2 -10 -12 -21 -23 -22 -19 -22 -19 -8 4 12
19 29 30 29 19z m-405 -17 c3 -5 -1 -10 -10 -10 -9 0 -13 5 -10 10 3 6 8 10
10 10 2 0 7 -4 10 -10z m443 -7 c-10 -2 -18 -11 -18 -18 0 -9 -6 -12 -15 -9
-22 9 1 34 29 33 17 -1 17 -2 4 -6z"/>
<path d="M1060 1515 c-7 -9 -8 -15 -2 -15 5 0 12 7 16 15 3 8 4 15 2 15 -2 0
-9 -7 -16 -15z"/>
<path d="M1200 1088 c0 -18 18 -34 28 -24 3 4 -2 14 -11 23 -16 16 -17 16 -17
1z"/>
<path d="M1257 954 c-8 -8 1 -24 14 -24 5 0 9 7 9 15 0 15 -12 20 -23 9z"/>
<path d="M1692 2363 c5 -25 28 -28 28 -4 0 12 -6 21 -16 21 -9 0 -14 -7 -12
-17z"/>
<path d="M1735 2340 c-3 -5 -2 -10 4 -10 5 0 13 5 16 10 3 6 2 10 -4 10 -5 0
-13 -4 -16 -10z"/>
<path d="M1641 2321 c-10 -6 -10 -10 -1 -16 13 -8 24 -1 19 14 -3 6 -10 7 -18
2z"/>
<path d="M1660 2280 c0 -5 5 -10 10 -10 6 0 10 5 10 10 0 6 -4 10 -10 10 -5 0
-10 -4 -10 -10z"/>
<path d="M1590 2194 c0 -8 5 -12 10 -9 6 3 10 10 10 16 0 5 -4 9 -10 9 -5 0
-10 -7 -10 -16z"/>
<path d="M1536 2174 c-8 -21 -1 -28 18 -21 9 4 13 13 10 22 -8 20 -20 19 -28
-1z"/>
<path d="M4682 2010 c15 -23 24 -25 34 -8 4 6 3 8 -3 5 -6 -4 -13 0 -17 8 -3
8 -10 15 -16 15 -6 0 -5 -7 2 -20z"/>
<path d="M8645 1970 c-3 -5 -1 -10 4 -10 6 0 11 5 11 10 0 6 -2 10 -4 10 -3 0
-8 -4 -11 -10z"/>
<path d="M2890 1939 c0 -5 5 -7 10 -4 6 3 10 8 10 11 0 2 -4 4 -10 4 -5 0 -10
-5 -10 -11z"/>
<path d="M2887 1903 c-3 -4 8 -39 24 -78 15 -38 30 -78 32 -87 3 -10 10 -18
17 -18 7 0 9 8 5 20 -5 16 -3 19 12 13 17 -6 17 -5 1 13 -10 12 -14 24 -9 30
5 5 11 25 15 44 4 25 3 31 -4 20 -6 -9 -10 -10 -10 -3 0 6 -10 15 -22 19 -13
3 -30 13 -40 21 -9 8 -18 11 -21 6z"/>
<path d="M7403 1863 c9 -2 23 -2 30 0 6 3 -1 5 -18 5 -16 0 -22 -2 -12 -5z"/>
<path d="M3037 1797 c-3 -17 -8 -40 -12 -49 -5 -14 -2 -18 13 -18 24 0 31 15
25 58 -7 44 -19 49 -26 9z"/>
<path d="M2442 1568 c-52 -17 -73 -32 -119 -82 -83 -90 -107 -148 -106 -266 1
-82 4 -102 27 -147 14 -29 26 -57 26 -63 0 -11 110 -100 123 -100 4 0 29 -10
55 -22 38 -18 65 -23 137 -23 96 0 157 14 215 51 99 62 160 167 160 274 0 39
-4 60 -9 52 -7 -11 -10 -10 -15 3 -9 23 -8 25 9 19 9 -4 15 0 15 10 0 9 -7 16
-16 16 -10 0 -14 6 -11 15 4 8 2 17 -3 20 -5 3 -7 12 -3 20 8 23 -5 77 -25
103 -12 15 -32 25 -58 28 -78 9 -124 11 -124 7 0 -3 8 -17 19 -31 60 -87 84
-187 69 -299 -17 -124 -85 -224 -163 -239 -223 -41 -361 313 -215 549 17 28
25 46 18 40 -15 -12 -80 -5 -72 8 3 5 20 9 37 9 18 0 57 7 87 15 87 23 139 20
172 -12 21 -20 31 -24 40 -15 8 8 15 9 25 0 7 -6 17 -8 21 -4 9 10 -27 31 -53
31 -27 0 -31 19 -5 23 22 4 81 -18 75 -28 -2 -3 8 -6 22 -6 30 -2 30 -2 -42
35 -55 28 -67 31 -155 31 -69 -1 -112 -7 -158 -22z m-162 -462 c0 -3 -4 -8
-10 -11 -5 -3 -10 -1 -10 4 0 6 5 11 10 11 6 0 10 -2 10 -4z m164 -169 c-7
-18 -44 -24 -44 -7 0 6 -9 10 -20 10 -11 0 -20 5 -20 11 0 7 9 9 23 6 12 -4
29 -2 37 3 19 12 33 -2 24 -23z"/>
<path d="M3004 1581 c-2 -2 -4 -13 -4 -23 0 -13 8 -18 30 -18 21 0 35 -8 46
-26 15 -23 16 -47 9 -242 -5 -119 -9 -237 -10 -262 -2 -62 -18 -86 -59 -94
-31 -6 -55 -30 -38 -39 14 -8 107 8 95 16 -7 5 -13 13 -13 19 0 6 8 4 18 -4
20 -18 85 -38 125 -38 40 0 38 36 -4 45 -56 12 -63 46 -67 328 -2 142 0 247 5
247 13 0 98 -192 154 -345 47 -131 107 -255 123 -255 14 0 38 51 51 108 5 25
3 32 -9 32 -17 0 -22 35 -7 45 6 3 6 17 1 35 -10 36 -42 90 -49 85 -3 -1 -7
14 -7 34 -1 21 -11 56 -23 78 -24 48 -43 48 -92 2 l-30 -28 -10 26 c-5 14 -7
34 -4 44 4 11 2 19 -2 19 -16 0 -9 94 7 106 12 10 12 15 1 27 -10 13 -9 20 4
41 14 21 15 27 4 30 -19 6 -239 12 -245 7z m100 -636 c3 -9 0 -15 -9 -15 -8 0
-15 7 -15 15 0 8 4 15 9 15 5 0 11 -7 15 -15z"/>
<path d="M3775 1582 l-110 -3 -14 -32 c-7 -18 -26 -62 -42 -98 -16 -36 -29
-71 -29 -77 0 -11 -10 -34 -79 -184 -35 -77 -36 -81 -17 -98 12 -10 20 0 46
55 17 37 29 70 26 73 -4 3 2 15 13 26 27 29 44 96 26 96 -21 0 -8 24 18 35 14
6 27 26 36 55 39 129 46 105 45 -151 -1 -187 1 -232 12 -236 8 -3 14 -11 14
-19 0 -8 -6 -11 -14 -8 -12 4 -16 -5 -18 -43 -3 -48 -3 -48 -43 -53 -31 -4
-41 -10 -43 -26 -3 -21 -1 -22 144 -20 108 1 148 4 151 13 3 7 -7 17 -20 22
-14 6 -28 14 -31 20 -8 13 -17 558 -9 589 4 15 13 22 29 22 25 0 44 26 28 38
-5 4 -59 6 -119 4z m-122 -102 c-3 -12 -8 -19 -11 -16 -5 6 5 36 12 36 2 0 2
-9 -1 -20z m113 -12 c9 -31 -5 -35 -26 -8 -25 32 -25 39 0 33 10 -3 22 -14 26
-25z m-8 -112 c0 -22 -2 -23 -19 -8 -11 9 -19 20 -19 24 0 5 8 8 19 8 13 0 19
-7 19 -24z m47 -26 c3 -5 -1 -10 -9 -10 -9 0 -16 5 -16 10 0 6 4 10 9 10 6 0
13 -4 16 -10z m-4 -73 c-1 -12 -15 -9 -19 4 -3 6 1 10 8 8 6 -3 11 -8 11 -12z
m-61 -307 c0 -5 -4 -10 -10 -10 -5 0 -10 5 -10 10 0 6 5 10 10 10 6 0 10 -4
10 -10z"/>
<path d="M4047 1583 c-105 -3 -118 -6 -115 -21 2 -10 14 -18 31 -20 56 -7 60
-26 52 -289 -8 -258 -19 -319 -63 -338 -41 -18 -26 -35 32 -35 29 0 81 -3 115
-7 61 -6 63 -6 59 17 -2 15 -11 24 -27 27 -36 5 -47 19 -60 68 -12 49 -16 515
-3 515 4 0 27 -51 51 -113 53 -135 51 -132 138 -332 42 -98 75 -161 84 -163
15 -3 21 9 114 238 14 36 32 79 40 95 7 17 35 82 61 145 26 63 51 119 56 125
4 5 8 -13 8 -40 1 -28 1 -75 2 -105 3 -180 -4 -407 -11 -419 -6 -9 -25 -15
-45 -15 -34 0 -53 -17 -41 -36 4 -7 211 -7 298 0 27 2 21 30 -7 30 -13 0 -29
6 -35 13 -7 9 -13 114 -17 305 -5 286 -5 291 15 309 22 19 27 39 11 45 -5 2
-53 1 -106 -2 l-96 -5 -18 -45 c-89 -228 -178 -436 -185 -428 -3 3 -26 60
-122 298 -65 163 -79 192 -92 188 -3 -1 -59 -4 -124 -5z m693 -123 c0 -5 -4
-10 -10 -10 -5 0 -10 5 -10 10 0 6 5 10 10 10 6 0 10 -4 10 -10z m-70 -30 c0
-5 -4 -10 -10 -10 -5 0 -10 5 -10 10 0 6 5 10 10 10 6 0 10 -4 10 -10z"/>
<path d="M4838 1579 c-21 -13 1 -39 32 -39 17 0 33 -6 35 -12 3 -7 7 -119 8
-248 3 -201 6 -240 21 -270 19 -36 84 -110 98 -110 17 0 7 51 -13 71 -14 14
-18 24 -11 31 8 7 16 5 28 -6 9 -10 23 -15 31 -12 11 4 13 1 8 -15 -4 -11 -2
-26 5 -34 9 -10 6 -15 -10 -20 -32 -10 -18 -29 26 -36 147 -25 220 -13 279 47
53 53 77 116 80 214 12 325 17 374 38 398 31 34 11 44 -90 45 -81 1 -88 0 -88
-18 0 -14 8 -21 25 -23 14 -2 30 -8 36 -13 17 -14 24 -86 25 -275 0 -137 -3
-179 -16 -210 -24 -57 -62 -92 -121 -111 -49 -15 -55 -15 -99 1 -25 10 -57 30
-71 44 -13 15 -24 22 -24 17 0 -5 -7 1 -16 13 -9 13 -13 26 -9 30 3 3 10 1 14
-6 4 -7 7 99 7 237 -1 137 2 253 6 257 4 4 25 10 45 13 28 5 38 11 38 24 0 17
-13 18 -153 20 -85 1 -159 -1 -164 -4z m592 -204 c0 -8 -2 -15 -4 -15 -2 0 -6
7 -10 15 -3 8 -1 15 4 15 6 0 10 -7 10 -15z m-3 -97 c-3 -8 -6 -5 -6 6 -1 11
2 17 5 13 3 -3 4 -12 1 -19z m-467 -123 c-7 -8 -16 -15 -21 -15 -15 0 -10 19
9 38 13 13 18 14 20 4 2 -7 -2 -19 -8 -27z m479 -27 c1 -5 -3 -8 -9 -8 -5 0
-10 12 -9 28 0 24 1 25 9 7 5 -11 9 -23 9 -27z m-429 -188 c0 -5 -2 -10 -4
-10 -3 0 -8 5 -11 10 -3 6 -1 10 4 10 6 0 11 -4 11 -10z m210 -51 c0 -11 -27
-12 -34 0 -3 4 -3 11 0 14 8 8 34 -3 34 -14z"/>
<path d="M6050 1564 c0 -19 5 -24 25 -24 35 0 65 -33 65 -72 1 -18 3 -111 6
-205 3 -95 2 -173 -3 -173 -4 0 -35 35 -68 77 -33 42 -100 126 -150 185 -49
60 -112 135 -138 168 l-48 60 -95 0 c-112 0 -122 -10 -69 -63 l37 -37 -4 -263
c-3 -283 -6 -297 -55 -297 -26 0 -42 -25 -26 -41 7 -7 25 -7 54 -1 24 5 36 10
27 11 -10 1 -18 5 -18 10 0 14 26 32 34 23 5 -4 6 2 4 13 -2 12 3 21 15 23 21
4 22 -14 3 -50 -17 -33 -8 -38 65 -38 46 0 49 2 49 25 0 21 -5 25 -30 25 -17
0 -38 9 -50 22 -19 21 -20 34 -20 262 l1 241 36 -40 c19 -22 42 -51 51 -65 48
-74 365 -445 399 -467 14 -10 28 -12 33 -7 5 5 10 74 11 154 2 150 15 404 24
477 5 36 10 42 33 45 18 2 27 9 27 20 0 16 -14 18 -112 22 l-113 3 0 -23z
m-230 -123 c0 -12 -20 -25 -27 -18 -7 7 6 27 18 27 5 0 9 -4 9 -9z m-76 -27
c3 -8 2 -12 -4 -9 -6 3 -10 10 -10 16 0 14 7 11 14 -7z m87 -7 c-10 -9 -11 -8
-5 6 3 10 9 15 12 12 3 -3 0 -11 -7 -18z"/>
<path d="M7787 1583 c-4 -4 -53 -6 -107 -5 -93 3 -100 1 -100 -16 0 -14 9 -21
30 -25 49 -10 42 -36 -64 -230 -45 -82 -49 -87 -66 -72 -16 15 -17 14 -13 -10
7 -31 -4 -31 -39 0 -33 29 -35 41 -8 55 28 15 25 39 -17 125 -37 74 -53 92
-53 58 0 -13 -3 -14 -12 -5 -10 10 -10 17 0 32 6 11 12 26 12 34 0 8 7 17 16
20 13 5 14 9 4 21 -10 12 -38 14 -141 12 -115 -2 -129 -4 -129 -19 0 -13 8
-18 25 -18 14 0 25 4 25 8 0 5 15 9 33 10 29 1 31 0 13 -13 -24 -18 -14 -48
53 -159 26 -44 65 -115 86 -156 37 -73 37 -75 36 -188 -1 -63 -4 -118 -7 -123
-3 -5 -18 -9 -35 -9 -16 0 -29 -5 -29 -11 0 -5 4 -8 9 -5 5 4 11 1 13 -6 3 -8
32 -14 79 -16 112 -5 113 -3 117 160 3 131 4 134 39 198 20 36 50 88 68 115
44 68 99 177 97 191 -2 8 12 10 42 7 28 -4 46 -1 51 7 8 14 -17 44 -28 33z
m-370 -509 c-3 -3 -12 -4 -19 -1 -8 3 -5 6 6 6 11 1 17 -2 13 -5z"/>
<path d="M6340 1561 c0 -16 8 -20 43 -23 l42 -3 3 -46 c2 -38 7 -48 25 -53
l22 -7 -21 -9 c-21 -8 -22 -14 -22 -209 0 -111 3 -201 7 -201 4 0 12 5 18 11
6 6 16 8 22 5 14 -9 -7 -43 -30 -49 -10 -3 -19 -17 -21 -33 -3 -26 -7 -29 -41
-32 -30 -3 -37 -7 -35 -20 2 -9 7 -16 11 -14 4 1 21 2 38 2 17 0 28 4 24 10
-3 5 3 15 15 22 11 7 20 18 20 25 0 7 7 10 16 6 14 -5 16 -2 10 20 -5 20 -3
25 8 21 7 -3 16 2 19 10 4 9 15 16 25 16 38 0 47 43 47 224 0 157 -1 171 -17
168 -22 -4 -22 -10 6 68 21 57 27 65 52 68 29 4 47 19 38 34 -3 4 -77 8 -165
8 -151 0 -159 -1 -159 -19z m210 -90 c0 -6 -5 -13 -11 -16 -6 -4 -8 -13 -5
-21 8 -22 -7 -24 -32 -4 -21 18 -14 39 8 25 6 -3 13 1 16 9 7 17 24 22 24 7z"/>
<path d="M7387 1574 c-8 -8 3 -34 14 -34 5 0 9 9 9 20 0 19 -11 26 -23 14z"/>
<path d="M3257 1527 c-3 -9 1 -18 9 -21 16 -6 18 2 5 22 -7 11 -9 11 -14 -1z"/>
<path d="M3250 1454 c0 -8 5 -12 10 -9 6 4 8 11 5 16 -9 14 -15 11 -15 -7z"/>
<path d="M3279 1432 c-19 -34 -14 -52 15 -52 12 0 27 -5 34 -12 17 -17 16 13
-2 57 -18 42 -26 43 -47 7z"/>
<path d="M6565 939 c-4 -12 -12 -18 -21 -15 -7 3 -18 -4 -24 -14 -6 -11 -18
-20 -26 -20 -8 0 -12 -4 -9 -10 8 -12 155 -13 174 -1 23 15 6 36 -30 36 -28 0
-35 4 -37 23 -4 28 -19 29 -27 1z"/>
<path d="M7550 890 c0 -15 7 -20 25 -20 18 0 25 5 25 20 0 15 -7 20 -25 20
-18 0 -25 -5 -25 -20z"/>
<path d="M1220 499 c0 -6 9 -13 20 -16 11 -3 20 -9 20 -14 0 -5 5 -9 10 -9 15
0 12 16 -6 34 -18 18 -44 21 -44 5z"/>
</g>
</svg>
