<svg width="90" height="112" viewBox="0 0 90 112" fill="none" xmlns="http://www.w3.org/2000/svg">
<path d="M85.463 111.434H4.28201C3.67861 111.434 3.083 111.298 2.53978 111.035C1.99656 110.772 1.51982 110.39 1.14525 109.917C0.770678 109.444 0.507989 108.892 0.376854 108.303C0.245718 107.714 0.249534 107.103 0.388015 106.516L10.681 62.831C10.8468 62.1271 11.2003 61.4814 11.704 60.9625C12.2076 60.4435 12.8424 60.0708 13.541 59.884L44.872 51.5L76.2 59.884C76.8986 60.0708 77.5335 60.4435 78.0371 60.9625C78.5407 61.4814 78.8942 62.1271 79.06 62.831L89.353 106.516C89.4914 107.103 89.4953 107.714 89.3644 108.302C89.2335 108.891 88.9711 109.442 88.597 109.915C88.2229 110.388 87.7467 110.771 87.2039 111.034C86.6612 111.297 86.0661 111.434 85.463 111.434V111.434Z" fill="url(#paint0_linear_420_7265)"/>
<path d="M42.958 84.5441L31.343 46.2051H58.4L46.787 84.5441C46.6628 84.9552 46.4096 85.3153 46.0648 85.5713C45.72 85.8273 45.302 85.9656 44.8725 85.9656C44.4431 85.9656 44.0251 85.8273 43.6803 85.5713C43.3355 85.3153 43.0822 84.9552 42.958 84.5441Z" fill="url(#paint1_linear_420_7265)"/>
<path d="M44.872 63.8308C61.0987 63.8308 74.253 50.6765 74.253 34.4498C74.253 18.2232 61.0987 5.06885 44.872 5.06885C28.6454 5.06885 15.491 18.2232 15.491 34.4498C15.491 50.6765 28.6454 63.8308 44.872 63.8308Z" fill="url(#paint2_linear_420_7265)"/>
<path d="M75.973 31.6669C75.973 23.4187 72.6964 15.5083 66.864 9.67587C61.0316 3.84349 53.1212 0.566895 44.873 0.566895C36.6248 0.566895 28.7144 3.84349 22.882 9.67587C17.0496 15.5083 13.773 23.4187 13.773 31.6669C13.773 31.9509 27.373 31.7529 37.248 28.6329C40.8931 27.4661 44.3725 25.834 47.6 23.7769C49.2129 22.7465 51.1193 22.2734 53.0269 22.4302C54.9344 22.5869 56.738 23.3649 58.161 24.6449C59.9878 26.3402 62.0041 27.819 64.17 29.0519C69.479 31.9589 75.973 31.9329 75.973 31.6669Z" fill="#111111"/>
<path d="M44.872 54.4999C43.2541 54.4981 41.7029 53.855 40.5582 52.7116C39.4135 51.5683 38.7687 50.0178 38.765 48.3999C38.765 48.1347 38.8704 47.8803 39.0579 47.6928C39.2454 47.5053 39.4998 47.3999 39.765 47.3999C40.0302 47.3999 40.2846 47.5053 40.4721 47.6928C40.6597 47.8803 40.765 48.1347 40.765 48.3999C40.7818 49.4782 41.222 50.5066 41.9905 51.2632C42.7589 52.0198 43.7941 52.4438 44.8725 52.4438C45.9509 52.4438 46.9861 52.0198 47.7546 51.2632C48.523 50.5066 48.9632 49.4782 48.98 48.3999C48.98 48.1347 49.0854 47.8803 49.2729 47.6928C49.4604 47.5053 49.7148 47.3999 49.98 47.3999C50.2452 47.3999 50.4996 47.5053 50.6871 47.6928C50.8747 47.8803 50.98 48.1347 50.98 48.3999C50.9761 50.0179 50.331 51.5684 49.1862 52.7117C48.0413 53.855 46.49 54.4981 44.872 54.4999Z" fill="#111111"/>
<defs>
<linearGradient id="paint0_linear_420_7265" x1="0.28125" y1="51.5" x2="98.3949" y2="76.8451" gradientUnits="userSpaceOnUse">
<stop stop-color="#A76AD1"/>
<stop offset="1" stop-color="#7832BB"/>
</linearGradient>
<linearGradient id="paint1_linear_420_7265" x1="31.343" y1="46.2051" x2="62.6603" y2="49.905" gradientUnits="userSpaceOnUse">
<stop stop-color="#FAD774"/>
<stop offset="1" stop-color="#F19958"/>
</linearGradient>
<linearGradient id="paint2_linear_420_7265" x1="15.491" y1="5.06885" x2="82.437" y2="16.6914" gradientUnits="userSpaceOnUse">
<stop stop-color="#FAD774"/>
<stop offset="1" stop-color="#F19958"/>
</linearGradient>
</defs>
</svg>
