<svg width="105" height="110" viewBox="0 0 105 110" fill="none" xmlns="http://www.w3.org/2000/svg">
<path d="M95.273 21.5693H11.344C9.13486 21.5693 7.34399 23.3602 7.34399 25.5693V91.2433C7.34399 93.4525 9.13486 95.2433 11.344 95.2433H95.273C97.4821 95.2433 99.273 93.4525 99.273 91.2433V25.5693C99.273 23.3602 97.4821 21.5693 95.273 21.5693Z" fill="url(#paint0_linear_420_7276)"/>
<path d="M79.435 54.4407C92.612 54.4407 103.294 43.7586 103.294 30.5817C103.294 17.4047 92.612 6.72266 79.435 6.72266C66.258 6.72266 55.576 17.4047 55.576 30.5817C55.576 43.7586 66.258 54.4407 79.435 54.4407Z" fill="url(#paint1_linear_420_7276)"/>
<path d="M79.436 6.72266V26.2997C79.436 27.4353 79.8872 28.5245 80.6902 29.3275C81.4932 30.1305 82.5824 30.5817 83.718 30.5817H103.294C103.294 24.254 100.78 18.1856 96.3062 13.7111C91.832 9.23675 85.7637 6.72292 79.436 6.72266V6.72266Z" fill="url(#paint2_linear_420_7276)"/>
<path d="M68.828 58.8715V43.2075C68.828 42.1467 68.4066 41.1292 67.6564 40.3791C66.9063 39.6289 65.8889 39.2075 64.828 39.2075H4C2.93913 39.2075 1.92172 39.6289 1.17157 40.3791C0.421427 41.1292 0 42.1467 0 43.2075V105.28C0 106.34 0.421427 107.358 1.17157 108.108C1.92172 108.858 2.93913 109.28 4 109.28H100.546C101.607 109.28 102.624 108.858 103.374 108.108C104.125 107.358 104.546 106.34 104.546 105.28V66.8715C104.546 65.8107 104.125 64.7932 103.374 64.0431C102.624 63.2929 101.607 62.8715 100.546 62.8715H72.828C71.7671 62.8715 70.7497 62.4501 69.9996 61.6999C69.2494 60.9498 68.828 59.9324 68.828 58.8715Z" fill="url(#paint3_linear_420_7276)"/>
<path d="M66.611 13.2025C66.5529 12.9539 66.4111 12.7328 66.2094 12.5762C66.0077 12.4197 65.7583 12.3371 65.503 12.3425C64.6178 12.3418 63.7478 12.1124 62.9773 11.6766C62.2069 11.2407 61.5621 10.6132 61.1054 9.85491C60.6488 9.09658 60.3958 8.23313 60.3711 7.34828C60.3463 6.46342 60.5505 5.58717 60.964 4.80448C61.0852 4.58719 61.1282 4.33492 61.0858 4.08977C61.0434 3.84462 60.9181 3.62143 60.731 3.45748C58.9512 1.93747 56.8912 0.780394 54.667 0.0514784C54.431 -0.0227982 54.177 -0.0165448 53.945 0.0692558C53.7129 0.155056 53.5159 0.315539 53.385 0.525478C52.9185 1.24234 52.2803 1.83137 51.5285 2.23912C50.7766 2.64687 49.9348 2.86044 49.0795 2.86044C48.2242 2.86044 47.3824 2.64687 46.6306 2.23912C45.8787 1.83137 45.2406 1.24234 44.774 0.525478C44.6431 0.315539 44.4461 0.155056 44.2141 0.0692558C43.982 -0.0165448 43.728 -0.0227982 43.492 0.0514784C41.2679 0.780394 39.2078 1.93747 37.428 3.45748C37.2409 3.62143 37.1157 3.84462 37.0733 4.08977C37.0309 4.33492 37.0739 4.58719 37.195 4.80448C37.6076 5.58704 37.8111 6.46286 37.7858 7.34714C37.7606 8.23142 37.5074 9.0942 37.0509 9.85195C36.5944 10.6097 35.9499 11.2367 35.18 11.6724C34.4101 12.108 33.5407 12.3374 32.656 12.3385C32.4008 12.3331 32.1514 12.4157 31.9497 12.5722C31.748 12.7288 31.6062 12.9499 31.548 13.1985C31.034 15.486 30.9749 17.8522 31.374 20.1625C31.4213 20.4184 31.5604 20.6483 31.7651 20.809C31.9698 20.9698 32.2262 21.0503 32.486 21.0355C33.4363 21.0044 34.3766 21.2376 35.2022 21.7091C36.0278 22.1806 36.7064 22.872 37.1625 23.7062C37.6185 24.5405 37.8341 25.4849 37.7853 26.4345C37.7365 27.384 37.4252 28.3014 36.886 29.0845C36.743 29.3012 36.6832 29.5623 36.7178 29.8197C36.7524 30.077 36.8789 30.3132 37.074 30.4845C38.821 32.056 40.8596 33.2693 43.074 34.0555C43.3253 34.1471 43.6017 34.142 43.8494 34.041C44.0971 33.9401 44.2983 33.7506 44.414 33.5095C44.8238 32.6167 45.4812 31.8603 46.3081 31.33C47.135 30.7997 48.0967 30.5178 49.079 30.5178C50.0614 30.5178 51.0231 30.7997 51.85 31.33C52.6769 31.8603 53.3342 32.6167 53.744 33.5095C53.8599 33.7507 54.0614 33.9402 54.3092 34.0411C54.5571 34.142 54.8336 34.1472 55.085 34.0555C57.2996 33.2697 59.3383 32.0564 61.085 30.4845C61.2791 30.3134 61.405 30.078 61.4395 29.8216C61.4741 29.5651 61.4149 29.3048 61.273 29.0885C60.7336 28.3054 60.422 27.3879 60.373 26.4382C60.3241 25.4885 60.5397 24.5439 60.9958 23.7094C61.4518 22.875 62.1306 22.1835 62.9563 21.7119C63.7821 21.2404 64.7226 21.0072 65.673 21.0385C65.9329 21.0533 66.1892 20.9728 66.3939 20.812C66.5987 20.6513 66.7377 20.4214 66.785 20.1655C67.1841 17.8552 67.125 15.489 66.611 13.2015V13.2025ZM49.079 25.9515C47.3338 25.9513 45.6279 25.4336 44.1769 24.4639C42.726 23.4942 41.5951 22.116 40.9274 20.5036C40.2597 18.8912 40.0851 17.117 40.4257 15.4054C40.7663 13.6938 41.6068 12.1216 42.8409 10.8876C44.075 9.65366 45.6473 8.81335 47.3589 8.47296C49.0706 8.13256 50.8447 8.30736 52.4571 8.97526C54.0694 9.64316 55.4474 10.7742 56.417 12.2252C57.3865 13.6763 57.904 15.3823 57.904 17.1275C57.9011 19.467 56.9704 21.7099 55.316 23.3641C53.6616 25.0183 51.4186 25.9488 49.079 25.9515V25.9515Z" fill="url(#paint4_linear_420_7276)"/>
<path d="M95.898 72.2844C96.7982 72.2844 97.528 71.5546 97.528 70.6544C97.528 69.7542 96.7982 69.0244 95.898 69.0244C94.9978 69.0244 94.268 69.7542 94.268 70.6544C94.268 71.5546 94.9978 72.2844 95.898 72.2844Z" fill="url(#paint5_linear_420_7276)"/>
<path d="M85.702 72.2844C86.6022 72.2844 87.332 71.5546 87.332 70.6544C87.332 69.7542 86.6022 69.0244 85.702 69.0244C84.8018 69.0244 84.072 69.7542 84.072 70.6544C84.072 71.5546 84.8018 72.2844 85.702 72.2844Z" fill="url(#paint6_linear_420_7276)"/>
<defs>
<linearGradient id="paint0_linear_420_7276" x1="7.34399" y1="21.5693" x2="110.397" y2="43.8935" gradientUnits="userSpaceOnUse">
<stop stop-color="#FAD774"/>
<stop offset="1" stop-color="#F19958"/>
</linearGradient>
<linearGradient id="paint1_linear_420_7276" x1="55.576" y1="6.72266" x2="109.94" y2="16.1608" gradientUnits="userSpaceOnUse">
<stop stop-color="#FAD774"/>
<stop offset="1" stop-color="#F19958"/>
</linearGradient>
<linearGradient id="paint2_linear_420_7276" x1="79.436" y1="6.72266" x2="106.617" y2="11.4414" gradientUnits="userSpaceOnUse">
<stop stop-color="#ED688A"/>
<stop offset="1" stop-color="#D264A9"/>
</linearGradient>
<linearGradient id="paint3_linear_420_7276" x1="0" y1="39.2075" x2="114.982" y2="68.9906" gradientUnits="userSpaceOnUse">
<stop stop-color="#A76AD1"/>
<stop offset="1" stop-color="#7832BB"/>
</linearGradient>
<linearGradient id="paint4_linear_420_7276" x1="31.113" y1="0" x2="71.9203" y2="7.46088" gradientUnits="userSpaceOnUse">
<stop stop-color="#7FB2EF"/>
<stop offset="1" stop-color="#8F8FE8"/>
</linearGradient>
<linearGradient id="paint5_linear_420_7276" x1="94.268" y1="69.0244" x2="97.982" y2="69.6692" gradientUnits="userSpaceOnUse">
<stop stop-color="#FAD774"/>
<stop offset="1" stop-color="#F19958"/>
</linearGradient>
<linearGradient id="paint6_linear_420_7276" x1="84.072" y1="69.0244" x2="87.786" y2="69.6692" gradientUnits="userSpaceOnUse">
<stop stop-color="#FAD774"/>
<stop offset="1" stop-color="#F19958"/>
</linearGradient>
</defs>
</svg>
