<svg width="114" height="110" viewBox="0 0 114 110" fill="none" xmlns="http://www.w3.org/2000/svg">
<path d="M111.086 72.6502H58.415C58.0238 72.6493 57.6379 72.5602 57.2859 72.3894C56.934 72.2186 56.6251 71.9707 56.3823 71.664C56.1395 71.3572 55.9691 70.9997 55.8837 70.618C55.7982 70.2362 55.8001 69.8401 55.889 69.4592L62.567 41.1162C62.6744 40.659 62.9037 40.2394 63.2305 39.902C63.5573 39.5647 63.9694 39.3222 64.423 39.2002L84.751 33.7622L105.079 39.2002C105.532 39.322 105.943 39.564 106.27 39.9006C106.597 40.2372 106.826 40.6558 106.934 41.1122L113.612 69.4552C113.702 69.8364 113.704 70.2329 113.619 70.6152C113.534 70.9974 113.363 71.3555 113.121 71.6627C112.878 71.9699 112.569 72.2183 112.216 72.3893C111.864 72.5603 111.478 72.6495 111.086 72.6502V72.6502Z" fill="url(#paint0_linear_420_7244)"/>
<path d="M55.585 73.2531H2.91402C2.52295 73.2522 2.13713 73.1631 1.78528 72.9924C1.43343 72.8216 1.12463 72.5738 0.881853 72.2672C0.63908 71.9606 0.468595 71.6032 0.383093 71.2216C0.297591 70.84 0.299275 70.444 0.388019 70.0631L7.06602 41.7201C7.17403 41.2637 7.40347 40.8451 7.73004 40.5085C8.0566 40.1719 8.46812 39.9299 8.92102 39.8081L29.249 34.3701L49.577 39.8081C50.0301 39.9297 50.4418 40.1717 50.7686 40.5083C51.0953 40.8449 51.3249 41.2636 51.433 41.7201L58.111 70.0631C58.1998 70.444 58.2014 70.84 58.1159 71.2216C58.0304 71.6032 57.86 71.9606 57.6172 72.2672C57.3744 72.5738 57.0656 72.8216 56.7138 72.9924C56.3619 73.1631 55.9761 73.2522 55.585 73.2531Z" fill="url(#paint1_linear_420_7244)"/>
<path d="M83.335 109.281H30.665C30.2739 109.28 29.8881 109.191 29.5363 109.021C29.1844 108.85 28.8756 108.602 28.6328 108.295C28.3901 107.989 28.2196 107.631 28.1341 107.25C28.0486 106.868 28.0503 106.472 28.139 106.091L34.816 77.7484C34.9241 77.2919 35.1537 76.8732 35.4804 76.5365C35.8072 76.1999 36.2189 75.958 36.672 75.8364L57 70.4004L77.328 75.8384C77.7811 75.96 78.1928 76.2019 78.5196 76.5385C78.8463 76.8752 79.0759 77.2939 79.184 77.7504L85.861 106.093C85.9494 106.474 85.9508 106.87 85.8651 107.251C85.7795 107.633 85.6089 107.99 85.3662 108.296C85.1235 108.602 84.8148 108.85 84.4631 109.021C84.1115 109.191 83.7259 109.28 83.335 109.281Z" fill="url(#paint2_linear_420_7244)"/>
<path d="M84.751 41.7651C95.2786 41.7651 103.813 33.2308 103.813 22.7031C103.813 12.1755 95.2786 3.64111 84.751 3.64111C74.2233 3.64111 65.689 12.1755 65.689 22.7031C65.689 33.2308 74.2233 41.7651 84.751 41.7651Z" fill="url(#paint3_linear_420_7244)"/>
<path d="M29.249 42.3681C39.7767 42.3681 48.311 33.8338 48.311 23.3061C48.311 12.7785 39.7767 4.24414 29.249 4.24414C18.7214 4.24414 10.187 12.7785 10.187 23.3061C10.187 33.8338 18.7214 42.3681 29.249 42.3681Z" fill="url(#paint4_linear_420_7244)"/>
<path d="M57 78.396C67.5276 78.396 76.062 69.8616 76.062 59.334C76.062 48.8063 67.5276 40.272 57 40.272C46.4723 40.272 37.938 48.8063 37.938 59.334C37.938 69.8616 46.4723 78.396 57 78.396Z" fill="url(#paint5_linear_420_7244)"/>
<path d="M104.929 20.9002C104.892 15.5732 102.749 10.4771 98.9689 6.72344C95.1888 2.96982 90.0777 0.863281 84.7505 0.863281C79.4233 0.863281 74.3123 2.96982 70.5321 6.72344C66.752 10.4771 64.6095 15.5732 64.572 20.9002C69.7179 21.0046 74.8505 20.3399 79.8 18.9282C82.1663 18.1719 84.425 17.1131 86.52 15.7782C87.5666 15.1099 88.8034 14.8031 90.0409 14.9048C91.2785 15.0065 92.4486 15.5111 93.372 16.3412C94.5573 17.4416 95.866 18.401 97.272 19.2002C100.715 21.0872 104.929 21.0702 104.929 20.9002Z" fill="#111111"/>
<path d="M84.751 36.063C83.6074 36.0619 82.5109 35.6072 81.7021 34.7986C80.8933 33.9901 80.4383 32.8936 80.437 31.75C80.437 31.4848 80.5424 31.2304 80.7299 31.0429C80.9174 30.8554 81.1718 30.75 81.437 30.75C81.7022 30.75 81.9566 30.8554 82.1441 31.0429C82.3317 31.2304 82.437 31.4848 82.437 31.75C82.4496 32.3552 82.6989 32.9315 83.1314 33.3551C83.5639 33.7787 84.1451 34.0159 84.7505 34.0159C85.3559 34.0159 85.9372 33.7787 86.3697 33.3551C86.8022 32.9315 87.0514 32.3552 87.064 31.75C87.064 31.4848 87.1694 31.2304 87.3569 31.0429C87.5444 30.8554 87.7988 30.75 88.064 30.75C88.3292 30.75 88.5836 30.8554 88.7711 31.0429C88.9587 31.2304 89.064 31.4848 89.064 31.75C89.063 32.8936 88.6082 33.99 87.7996 34.7986C86.991 35.6072 85.8946 36.0619 84.751 36.063V36.063Z" fill="#111111"/>
<path d="M49.428 21.5003C49.3905 16.1733 47.2481 11.0772 43.4679 7.32354C39.6878 3.56992 34.5767 1.46338 29.2495 1.46338C23.9224 1.46338 18.8113 3.56992 15.0311 7.32354C11.251 11.0772 9.10855 16.1733 9.07104 21.5003C14.217 21.6055 19.3499 20.9422 24.3 19.5323C26.6661 18.7755 28.9247 17.7168 31.02 16.3823C32.0664 15.7139 33.303 15.4071 34.5405 15.5088C35.7779 15.6105 36.9479 16.1151 37.871 16.9453C39.057 18.0449 40.3656 19.0042 41.771 19.8043C45.214 21.6903 49.428 21.6743 49.428 21.5003Z" fill="#111111"/>
<path d="M29.249 36.668C28.1054 36.6667 27.009 36.2117 26.2004 35.4029C25.3918 34.5942 24.9371 33.4976 24.936 32.354C24.936 32.0888 25.0414 31.8344 25.2289 31.6469C25.4165 31.4594 25.6708 31.354 25.936 31.354C26.2013 31.354 26.4556 31.4594 26.6431 31.6469C26.8307 31.8344 26.936 32.0888 26.936 32.354C26.9296 32.6619 26.9847 32.9679 27.0981 33.2542C27.2115 33.5405 27.3809 33.8013 27.5964 34.0213C27.8118 34.2412 28.069 34.416 28.3529 34.5353C28.6368 34.6546 28.9416 34.7161 29.2495 34.7161C29.5575 34.7161 29.8623 34.6546 30.1462 34.5353C30.43 34.416 30.6872 34.2412 30.9027 34.0213C31.1182 33.8013 31.2875 33.5405 31.4009 33.2542C31.5143 32.9679 31.5694 32.6619 31.563 32.354C31.563 32.0888 31.6684 31.8344 31.8559 31.6469C32.0435 31.4594 32.2978 31.354 32.563 31.354C32.8283 31.354 33.0826 31.4594 33.2701 31.6469C33.4577 31.8344 33.563 32.0888 33.563 32.354C33.5617 33.4977 33.1068 34.5943 32.298 35.403C31.4893 36.2117 30.3928 36.6667 29.249 36.668V36.668Z" fill="#111111"/>
<path d="M77.178 57.5291C77.178 52.1775 75.0521 47.0452 71.268 43.2611C67.4839 39.477 62.3516 37.3511 57 37.3511C51.6485 37.3511 46.5161 39.477 42.732 43.2611C38.9479 47.0452 36.822 52.1775 36.822 57.5291C41.9687 57.6341 47.1023 56.9705 52.053 55.5601C54.4189 54.803 56.6772 53.7439 58.772 52.4091C59.8186 51.7406 61.0555 51.4337 62.2931 51.5356C63.5308 51.6375 64.7009 52.1424 65.624 52.9731C66.8096 54.0731 68.1182 55.0325 69.524 55.8321C72.965 57.7181 77.178 57.7001 77.178 57.5291Z" fill="#111111"/>
<path d="M57 72.6953C55.8565 72.6943 54.76 72.2395 53.9514 71.4309C53.1428 70.6223 52.6881 69.5259 52.687 68.3823C52.687 68.1171 52.7924 67.8628 52.9799 67.6752C53.1674 67.4877 53.4218 67.3823 53.687 67.3823C53.9522 67.3823 54.2066 67.4877 54.3941 67.6752C54.5817 67.8628 54.687 68.1171 54.687 68.3823C54.687 68.9958 54.9307 69.5841 55.3645 70.0179C55.7982 70.4516 56.3866 70.6953 57 70.6953C57.6135 70.6953 58.2018 70.4516 58.6355 70.0179C59.0693 69.5841 59.313 68.9958 59.313 68.3823C59.313 68.1171 59.4184 67.8628 59.6059 67.6752C59.7934 67.4877 60.0478 67.3823 60.313 67.3823C60.5782 67.3823 60.8326 67.4877 61.0201 67.6752C61.2077 67.8628 61.313 68.1171 61.313 68.3823C61.312 69.5259 60.8572 70.6223 60.0486 71.4309C59.24 72.2395 58.1436 72.6943 57 72.6953V72.6953Z" fill="#111111"/>
<path d="M29.249 42.3691C27.3631 42.3691 25.4876 42.089 23.684 41.5381L27.335 53.5891C27.4594 53.9998 27.7127 54.3595 28.0574 54.6152C28.4021 54.8709 28.8198 55.0089 29.249 55.0089C29.6781 55.0089 30.0959 54.8709 30.4405 54.6152C30.7852 54.3595 31.0385 53.9998 31.163 53.5891L34.814 41.5381C33.0103 42.0891 31.1349 42.3691 29.249 42.3691Z" fill="url(#paint6_linear_420_7244)"/>
<path d="M84.7509 41.7651C82.8651 41.765 80.9897 41.4852 79.1859 40.9351L82.8369 52.9851C82.9614 53.3957 83.2147 53.7555 83.5593 54.0112C83.904 54.2668 84.3218 54.4049 84.7509 54.4049C85.1801 54.4049 85.5978 54.2668 85.9425 54.0112C86.2871 53.7555 86.5404 53.3957 86.6649 52.9851L90.3159 40.9351C88.5121 41.4852 86.6367 41.7649 84.7509 41.7651V41.7651Z" fill="url(#paint7_linear_420_7244)"/>
<path d="M56.9999 78.3998C55.1141 78.4002 53.2386 78.1205 51.4349 77.5698L55.0859 89.6198C55.2104 90.0305 55.4637 90.3903 55.8084 90.6459C56.153 90.9016 56.5708 91.0396 56.9999 91.0396C57.4291 91.0396 57.8468 90.9016 58.1915 90.6459C58.5362 90.3903 58.7894 90.0305 58.9139 89.6198L62.5649 77.5698C60.7613 78.1205 58.8858 78.4002 56.9999 78.3998V78.3998Z" fill="url(#paint8_linear_420_7244)"/>
<defs>
<linearGradient id="paint0_linear_420_7244" x1="55.8209" y1="33.7622" x2="119.479" y2="50.2056" gradientUnits="userSpaceOnUse">
<stop stop-color="#A76AD1"/>
<stop offset="1" stop-color="#7832BB"/>
</linearGradient>
<linearGradient id="paint1_linear_420_7244" x1="0.32019" y1="34.3701" x2="63.9755" y2="50.8146" gradientUnits="userSpaceOnUse">
<stop stop-color="#7FB2EF"/>
<stop offset="1" stop-color="#8F8FE8"/>
</linearGradient>
<linearGradient id="paint2_linear_420_7244" x1="28.0712" y1="70.4004" x2="91.7247" y2="86.8449" gradientUnits="userSpaceOnUse">
<stop stop-color="#ED688A"/>
<stop offset="1" stop-color="#D264A9"/>
</linearGradient>
<linearGradient id="paint3_linear_420_7244" x1="65.689" y1="3.64111" x2="109.123" y2="11.1817" gradientUnits="userSpaceOnUse">
<stop stop-color="#FAD774"/>
<stop offset="1" stop-color="#F19958"/>
</linearGradient>
<linearGradient id="paint4_linear_420_7244" x1="10.187" y1="4.24414" x2="53.6206" y2="11.7847" gradientUnits="userSpaceOnUse">
<stop stop-color="#FAD774"/>
<stop offset="1" stop-color="#F19958"/>
</linearGradient>
<linearGradient id="paint5_linear_420_7244" x1="37.938" y1="40.272" x2="81.3716" y2="47.8125" gradientUnits="userSpaceOnUse">
<stop stop-color="#FAD774"/>
<stop offset="1" stop-color="#F19958"/>
</linearGradient>
<linearGradient id="paint6_linear_420_7244" x1="23.684" y1="41.5381" x2="36.4829" y2="43.374" gradientUnits="userSpaceOnUse">
<stop stop-color="#FAD774"/>
<stop offset="1" stop-color="#F19958"/>
</linearGradient>
<linearGradient id="paint7_linear_420_7244" x1="79.1859" y1="40.9351" x2="91.9848" y2="42.7711" gradientUnits="userSpaceOnUse">
<stop stop-color="#FAD774"/>
<stop offset="1" stop-color="#F19958"/>
</linearGradient>
<linearGradient id="paint8_linear_420_7244" x1="51.4349" y1="77.5698" x2="64.2338" y2="79.4059" gradientUnits="userSpaceOnUse">
<stop stop-color="#FAD774"/>
<stop offset="1" stop-color="#F19958"/>
</linearGradient>
</defs>
</svg>
